<?xml version="1.0" standalone="no"?>
<!DOCTYPE svg PUBLIC "-//W3C//DTD SVG 20010904//EN"
 "http://www.w3.org/TR/2001/REC-SVG-20010904/DTD/svg10.dtd">
<svg version="1.0" xmlns="http://www.w3.org/2000/svg"
 width="850.000000pt" height="756.000000pt" viewBox="0 0 850.000000 756.000000"
 preserveAspectRatio="xMidYMid meet">

<g transform="translate(0.000000,756.000000) scale(0.100000,-0.100000)"
fill="#000000" stroke="none">
<path d="M47 7533 c-4 -3 -7 -1693 -7 -3755 l0 -3748 4215 0 4215 0 -2 3752
-3 3753 -4206 3 c-2313 1 -4209 -1 -4212 -5z m4323 -1658 l0 -1645 -2160 0
-2160 0 0 1645 0 1645 2160 0 2160 0 0 -1645z m4088 3 l-3 -1643 -2037 -3
-2038 -2 0 1645 0 1645 2040 0 2040 0 -2 -1642z m-4088 -3748 l0 -2090 -2160
0 -2160 0 0 2090 0 2090 2160 0 2160 0 0 -2090z m4085 0 l0 -2085 -2035 0
-2035 0 -3 2075 c-1 1141 0 2081 3 2088 3 10 416 12 2037 10 l2033 -3 0 -2085z"/>
<path d="M1645 7173 l0 -38 -517 -3 -518 -2 0 -760 0 -760 40 0 40 0 0 -475 0
-475 -160 0 c-136 0 -160 -2 -160 -15 0 -13 212 -15 1870 -13 1236 2 1871 6
1873 13 1 6 -60 11 -165 13 l-168 2 0 475 0 475 40 0 40 0 0 760 0 760 -60 0
-60 0 0 40 0 40 -80 0 -80 0 0 -40 0 -40 -800 0 -800 0 0 40 0 40 -167 0 -168
0 0 -37z m325 -8 l0 -35 -155 0 -155 0 0 35 0 35 155 0 155 0 0 -35z m1750
-170 l0 -205 -60 0 -60 0 0 205 0 205 60 0 60 0 0 -205z m-140 -45 l0 -171 78
3 77 3 3 168 2 168 53 -3 52 -3 0 -745 0 -745 -1612 -3 -1613 -2 0 750 0 750
1480 0 1480 0 0 -170z m180 -1815 l0 -475 -620 0 c-613 0 -620 0 -620 20 0 18
-7 20 -85 20 l-85 0 0 290 0 290 -145 0 -145 0 0 -267 c0 -148 -3 -278 -6
-290 -6 -20 -13 -23 -55 -23 -42 0 -49 -3 -49 -20 0 -20 -5 -20 -622 -18
l-623 3 -3 460 c-1 253 0 466 3 473 3 9 319 12 1530 12 l1525 0 0 -475z
m-1430 -150 l0 -285 -130 0 -130 0 0 285 0 285 130 0 130 0 0 -285z m175 -315
c-4 -6 -105 -10 -270 -10 -165 0 -266 4 -270 10 -4 7 88 10 270 10 182 0 274
-3 270 -10z"/>
<path d="M1154 6171 c-2 -2 -4 -58 -4 -123 l0 -118 115 0 116 0 -3 121 -3 120
-108 2 c-60 1 -111 0 -113 -2z m216 -121 l0 -111 -102 3 -103 3 -3 108 -3 107
106 0 105 0 0 -110z"/>
<path d="M1172 6053 l3 -98 93 -3 92 -3 0 101 0 100 -95 0 -96 0 3 -97z m173
-3 l0 -85 -77 -3 -78 -3 0 91 0 91 78 -3 77 -3 0 -85z"/>
<path d="M1604 6171 c-2 -2 -4 -58 -4 -123 l0 -118 115 0 115 0 0 123 0 122
-111 0 c-61 0 -113 -2 -115 -4z m216 -121 l0 -111 -102 3 -103 3 -3 108 -3
107 106 0 105 0 0 -110z"/>
<path d="M1620 6050 l0 -100 95 0 95 0 0 100 0 100 -95 0 -95 0 0 -100z m175
0 l0 -85 -77 -3 -78 -3 0 91 0 91 78 -3 77 -3 0 -85z"/>
<path d="M2640 6053 l0 -123 115 0 116 0 -3 121 -3 120 -113 2 -112 2 0 -122z
m108 100 l-88 -4 0 -99 0 -99 98 -4 97 -3 -102 -2 -103 -2 0 110 0 110 93 -2
92 -2 -87 -3z m82 -103 l0 -91 -77 3 -78 3 -3 88 -3 87 81 0 80 0 0 -90z"/>
<path d="M3090 6053 l0 -123 115 0 116 0 -3 121 -3 120 -113 2 -112 2 0 -122z
m108 100 l-88 -4 0 -99 0 -99 98 -4 97 -3 -102 -2 -103 -2 0 110 0 110 93 -2
92 -2 -87 -3z m82 -103 l0 -91 -77 3 -78 3 -3 88 -3 87 81 0 80 0 0 -90z"/>
<path d="M1000 5125 l0 -215 213 2 212 3 0 210 0 210 -212 3 -213 2 0 -215z
m410 0 l0 -205 -200 0 -200 0 0 205 0 205 200 0 200 0 0 -205z"/>
<path d="M1020 5125 l0 -195 190 0 190 0 0 195 0 195 -190 0 -190 0 0 -195z
m180 -5 l0 -180 -85 0 -85 0 0 180 0 180 85 0 85 0 0 -180z m190 0 l0 -180
-85 0 -85 0 0 180 0 180 85 0 85 0 0 -180z"/>
<path d="M3040 5125 l0 -215 215 0 215 0 0 215 0 215 -215 0 -215 0 0 -215z
m418 -2 l2 -203 -202 2 -203 3 198 2 197 3 -2 193 -3 192 -193 0 c-105 0 -192
3 -192 8 0 4 89 6 198 5 l197 -3 3 -202z m-208 -3 l0 -180 -85 0 -85 0 0 180
0 180 85 0 85 0 0 -180z m188 3 l-3 -178 -87 -3 -88 -3 0 181 0 180 90 0 90 0
-2 -177z"/>
<path d="M6360 7205 c0 -24 -5 -35 -15 -35 -17 0 -20 -25 -5 -35 17 -10 11
-23 -12 -28 -13 -2 -3 -5 22 -6 l45 -1 -130 -130 c-71 -71 -133 -130 -137
-130 -5 0 -8 79 -8 175 l0 175 -160 0 -160 0 0 -341 0 -341 -192 -200 c-203
-211 -208 -216 -465 -465 -90 -87 -163 -163 -163 -170 0 -8 14 -13 38 -13 31
0 45 7 77 40 21 22 43 40 47 40 4 0 8 -209 8 -465 l0 -465 -205 0 c-197 0
-205 -1 -205 -20 0 -16 -8 -19 -62 -22 -48 -2 -63 -7 -63 -18 0 -11 15 -16 62
-18 l62 -3 3 -137 3 -137 30 0 30 0 3 138 3 137 184 0 185 0 0 -119 c0 -116
-1 -120 -22 -123 -19 -2 -24 -10 -26 -45 l-3 -43 96 0 96 0 -3 43 c-2 35 -7
43 -26 45 -22 3 -23 6 -20 115 l3 112 708 3 707 2 0 -113 c0 -106 -1 -113 -22
-122 -16 -7 -22 -19 -22 -45 l-1 -35 95 0 95 0 0 40 c0 34 -3 40 -22 43 -22 3
-23 7 -23 118 l0 114 390 0 390 0 0 -114 c0 -111 -1 -115 -22 -118 -20 -3 -23
-9 -23 -43 l0 -40 95 0 95 0 0 40 c0 34 -3 40 -22 43 -22 3 -23 7 -23 123 l0
119 115 0 114 0 3 -137 3 -138 33 -3 32 -3 0 140 0 140 63 3 c47 2 62 7 62 18
0 10 -12 16 -33 18 -20 2 -32 8 -29 15 2 8 42 14 113 18 l109 5 -112 2 -112 2
-4 43 -4 42 -1 -42 c-2 -50 3 -49 -184 -45 l-138 3 0 467 0 466 43 -42 c37
-36 49 -42 85 -42 23 0 42 3 42 8 1 4 -116 124 -260 267 -143 143 -395 397
-560 565 l-300 305 0 193 0 192 -57 0 -58 0 3 -130 c2 -71 0 -130 -5 -130 -5
0 -51 43 -103 96 -84 84 -98 94 -122 90 -23 -5 -28 -2 -28 14 0 19 7 20 110
20 67 0 110 4 110 10 0 6 -43 10 -110 10 l-110 0 0 35 c0 19 -4 35 -10 35 -5
0 -10 -16 -10 -35z m-250 -208 l0 -182 -150 -150 -150 -150 0 333 0 332 150 0
150 0 0 -183z m628 6 c1 -95 -1 -173 -5 -173 -4 0 -24 17 -45 37 l-38 37 0
139 0 138 43 -3 42 -3 3 -172z m-248 10 l65 -68 -70 65 c-38 36 -71 66 -74 68
-2 1 0 2 5 2 5 0 39 -30 74 -67z m48 -103 l102 -111 -2 -222 -3 -222 -147 -3
c-127 -2 -148 0 -148 13 0 13 19 15 116 15 74 0 113 4 109 10 -4 6 -53 10
-116 10 l-109 0 -2 38 -1 37 -4 -36 c-3 -28 -10 -38 -26 -43 -17 -4 -19 -8 -9
-18 24 -24 11 -28 -83 -28 l-95 0 0 187 0 188 147 147 c81 82 152 148 158 148
5 0 56 -50 113 -110z m200 -382 l-3 -173 -42 -3 -43 -3 0 223 0 223 45 -47 45
-47 -2 -173z m-628 2 l0 -180 -150 0 -150 0 0 32 c0 29 18 51 147 180 81 82
149 148 150 148 2 0 3 -81 3 -180z m815 -10 l170 -170 -173 0 -172 0 0 170 c0
94 1 170 3 170 1 0 79 -76 172 -170z m175 -115 c118 -118 213 -215 210 -215
-3 0 -102 97 -220 215 -118 118 -213 215 -210 215 3 0 102 -97 220 -215z
m-1300 -30 c0 -18 -5 -25 -20 -25 -24 0 -25 8 -3 32 21 23 23 23 23 -7z m1335
-65 c4 -6 -253 -10 -715 -10 -484 0 -719 3 -715 10 8 13 1421 14 1430 0z
m-1035 -385 l0 -345 -415 0 -415 0 0 124 c0 68 -3 131 -6 139 -8 22 78 118
253 284 l152 143 215 0 216 0 0 -345z m300 275 l0 -70 -110 0 -110 0 0 -276 0
-275 -32 3 -33 3 -3 330 c-1 181 0 336 3 342 3 10 41 13 145 13 l140 0 0 -70z
m30 -275 c0 -223 -4 -345 -10 -345 -6 0 -10 119 -10 338 0 299 3 352 17 352 2
0 3 -155 3 -345z m208 333 c9 -9 12 -9 12 1 0 8 13 11 43 9 l42 -3 0 -340 0
-340 -42 -3 c-30 -2 -43 1 -43 9 0 10 -3 10 -12 1 -8 -8 -46 -12 -105 -12
l-93 0 0 338 c0 186 3 342 7 345 12 12 178 8 191 -5z m312 -128 c0 -138 0
-141 -20 -130 -28 15 -60 3 -60 -22 0 -17 5 -20 40 -16 36 3 40 1 40 -19 0
-27 -10 -29 -50 -8 -30 15 -30 15 -29 -12 1 -16 3 -21 6 -12 3 13 9 14 38 5
33 -10 48 -26 25 -26 -5 0 -10 -7 -10 -16 0 -14 -1 -14 -16 0 -8 9 -20 16 -25
16 -15 0 -23 -30 -11 -42 8 -8 9 -5 5 11 -7 27 5 26 40 -4 24 -21 27 -31 27
-85 0 -56 -1 -60 -18 -51 -26 14 -62 2 -62 -20 0 -11 5 -19 12 -19 9 0 9 -3 0
-12 -14 -14 -16 -48 -2 -48 5 0 7 7 4 15 -4 9 0 15 9 15 8 0 17 -7 21 -15 3
-8 12 -15 21 -15 20 0 19 -26 -1 -34 -9 -3 -54 -6 -100 -6 l-84 0 0 345 0 345
100 0 100 0 0 -140z m302 68 c192 -179 278 -262 278 -272 0 -5 10 -21 23 -35
22 -25 23 -31 19 -168 l-4 -143 -54 0 -54 0 0 126 c0 131 5 146 46 157 12 3 7
5 -13 6 -17 0 -35 6 -38 11 -3 6 -13 10 -22 10 -15 0 -14 -2 0 -18 24 -27 25
-277 1 -286 -9 -3 -90 -6 -180 -6 -139 0 -164 2 -164 15 0 12 20 15 113 17
l112 2 -112 3 -113 4 0 40 c0 24 -4 38 -10 34 -5 -3 -10 -22 -10 -41 0 -28 -4
-34 -22 -34 -17 0 -19 -3 -10 -12 21 -21 13 -28 -26 -28 l-39 0 -6 128 c-4 70
-7 219 -7 331 0 182 2 205 18 217 11 9 48 13 106 14 l90 0 78 -72z m-864 -350
l2 -268 -100 0 -100 0 0 263 c0 145 3 267 7 271 4 4 48 5 98 4 l90 -3 3 -267z
m542 132 c0 -5 -11 -10 -25 -10 -14 0 -25 5 -25 10 0 6 11 10 25 10 14 0 25
-4 25 -10z m670 -75 c13 -14 21 -25 18 -25 -2 0 -15 11 -28 25 -13 14 -21 25
-18 25 2 0 15 -11 28 -25z m-2330 12 c0 -2 -10 -12 -22 -23 l-23 -19 19 23
c18 21 26 27 26 19z m-100 -100 c0 -1 -30 -32 -67 -67 l-68 -65 65 68 c60 62
70 72 70 64z m72 -142 l3 -126 468 1 c308 0 467 -3 467 -10 0 -6 -161 -11
-467 -12 l-468 -3 -3 -52 c-2 -38 -7 -53 -18 -53 -12 0 -14 31 -14 190 0 161
2 190 15 190 12 0 15 -23 17 -125z m2396 -68 c2 -183 2 -187 -18 -187 -19 0
-21 5 -19 50 2 27 0 52 -3 55 -3 3 -144 6 -312 5 -212 0 -305 3 -301 10 5 7
106 10 306 9 165 -1 302 1 306 4 3 3 5 61 4 127 -2 112 -1 121 16 118 16 -3
18 -19 21 -191z m-2458 -17 c0 -113 -4 -180 -10 -180 -6 0 -10 67 -10 180 0
113 4 180 10 180 6 0 10 -67 10 -180z m2510 -7 c0 -97 -4 -164 -10 -168 -7 -4
-10 57 -10 177 0 122 4 178 10 168 5 -8 10 -88 10 -177z m101 130 c13 -16 12
-17 -3 -4 -10 7 -18 15 -18 17 0 8 8 3 21 -13z m-861 -13 c0 -5 -11 -10 -25
-10 -14 0 -25 5 -25 10 0 6 11 10 25 10 14 0 25 -4 25 -10z m7 -44 c-11 -11
-17 -12 -26 -3 -8 8 -6 14 11 23 27 15 36 1 15 -20z m-2 -116 c-3 -5 -43 -10
-90 -10 l-84 0 -3 -27 c-2 -17 -9 -28 -18 -28 -9 0 -16 11 -18 28 l-3 27 -265
0 c-159 0 -263 4 -259 9 3 5 163 10 376 11 252 0 369 -3 364 -10z m-835 -60
c0 -5 -18 -10 -40 -10 -36 0 -40 -2 -40 -26 0 -23 -3 -25 -37 -22 -35 3 -38 1
-41 -25 -3 -26 -6 -28 -40 -25 -30 2 -39 -1 -47 -19 -6 -14 -20 -23 -40 -25
-22 -2 -31 -9 -33 -25 -3 -19 -10 -23 -43 -23 -35 0 -39 -3 -39 -24 0 -21 -5
-25 -37 -28 -31 -2 -39 -7 -41 -25 -3 -19 -10 -23 -43 -23 -35 0 -39 -3 -39
-25 l0 -26 -137 3 -138 3 -3 65 c-2 36 -1 116 3 178 l7 112 414 0 c269 0 414
-3 414 -10z m540 -55 l0 -65 -85 0 -85 0 0 -275 0 -275 -35 0 -35 0 0 275 0
276 -112 -3 -113 -3 -3 -273 -2 -273 -28 3 c-15 2 -26 8 -24 16 1 6 -7 12 -18
12 -19 0 -20 8 -22 258 l-3 257 -44 3 -44 3 92 56 c51 30 90 57 87 60 -3 3
-83 -42 -179 -101 -96 -58 -177 -106 -181 -106 -3 0 -6 12 -6 26 0 23 3 25 38
22 32 -3 37 0 40 19 3 17 11 23 40 25 29 2 37 7 37 23 0 16 8 21 40 25 32 4
41 9 43 28 3 19 10 22 44 22 31 0 39 3 35 14 -5 12 35 15 259 15 l264 2 0 -66z
m54 34 c3 -17 6 -170 6 -340 l0 -309 -25 0 -25 0 0 340 c0 326 1 340 19 340
13 0 20 -10 25 -31z m256 -102 l0 -133 -40 4 c-35 4 -40 2 -40 -17 0 -25 45
-40 63 -21 10 10 8 12 -5 7 -21 -7 -48 1 -48 14 0 13 44 11 58 -3 14 -14 16
-88 2 -88 -5 0 -10 -7 -10 -17 0 -15 -2 -15 -19 1 -11 10 -25 15 -30 11 -14
-8 -14 -45 -1 -45 5 0 7 7 4 15 -8 21 16 18 44 -4 21 -18 22 -27 22 -139 0
-138 5 -132 -101 -132 l-69 0 0 309 c0 170 3 323 6 340 l7 31 78 0 79 0 0
-133z m478 116 c2 -8 -6 -13 -20 -13 -13 0 -30 6 -37 13 -11 10 -13 9 -9 -3 3
-8 19 -16 36 -18 26 -3 34 1 41 20 9 22 10 21 10 -8 1 -30 -1 -32 -40 -32 -53
-1 -57 -6 -23 -28 21 -14 29 -15 32 -6 3 10 7 10 18 1 11 -9 14 -49 14 -190 0
-158 -2 -179 -16 -179 -15 0 -15 -2 0 -25 23 -35 23 -180 0 -189 -9 -3 -90 -6
-180 -6 -139 0 -164 2 -164 15 0 12 20 15 113 17 l112 2 -112 3 -113 4 0 34
c0 19 -4 35 -10 35 -5 0 -10 -16 -10 -35 0 -29 -4 -35 -22 -35 -17 0 -19 -3
-10 -12 22 -22 13 -29 -30 -26 l-43 3 -3 324 c-2 237 1 327 10 338 16 19 449
15 456 -4z m145 -59 c9 -98 9 -260 0 -452 l-6 -152 -54 0 -53 0 0 85 0 86 30
6 c17 3 30 9 30 14 0 5 -13 9 -30 9 l-30 0 0 185 0 186 30 6 c17 3 30 9 30 14
0 5 -13 9 -30 9 -28 0 -30 2 -30 38 l0 39 53 2 54 2 6 -77z m-813 -306 c1
-183 0 -406 0 -495 l-1 -163 26 0 c15 0 24 -4 20 -10 -3 -5 -33 -10 -66 -10
-33 0 -59 4 -59 10 0 6 9 10 20 10 20 0 20 2 14 479 -4 263 -4 486 -1 495 4 9
16 16 27 16 20 0 20 -5 20 -332z m-1572 89 c-2 -133 -6 -181 -15 -185 -10 -3
-13 40 -13 193 0 176 2 196 15 185 13 -11 15 -42 13 -193z m2500 3 c-2 -136
-6 -184 -15 -188 -10 -3 -13 39 -13 186 0 104 3 192 7 195 18 19 23 -25 21
-193z m-2438 5 c0 -158 -2 -185 -15 -185 -13 0 -15 27 -15 185 0 158 2 185 15
185 13 0 15 -27 15 -185z m2378 -4 c2 -170 1 -182 -15 -179 -16 3 -18 20 -21
173 -3 176 0 199 21 193 9 -4 13 -52 15 -187z m-1568 -105 c0 -153 -4 -247
-10 -251 -6 -3 -10 5 -10 19 0 22 -5 25 -42 28 -38 3 -43 6 -41 26 2 19 -2 22
-35 22 -36 0 -38 2 -50 43 -8 27 -12 89 -10 172 l3 129 40 28 c32 22 51 27 98
28 l57 0 0 -244z m330 -21 l0 -265 -100 0 -100 0 0 265 0 265 100 0 100 0 0
-265z m248 3 l-3 -263 -72 -3 -73 -3 0 266 0 265 75 0 75 0 -2 -262z m-843
184 c-21 -18 -214 -132 -224 -132 -6 0 -11 9 -11 20 0 17 7 20 40 20 36 0 40
3 40 25 0 23 4 25 41 25 34 0 40 3 35 16 -10 25 2 34 47 34 23 0 37 -4 32 -8z
m55 -132 l0 -140 -24 0 c-18 0 -25 6 -28 23 -2 18 -11 23 -43 27 -32 4 -40 9
-40 25 0 16 -8 21 -36 23 -31 3 -38 7 -42 30 -3 15 -5 28 -4 28 11 10 204 123
210 124 4 0 7 -63 7 -140z m-367 -17 c-40 -2 -107 -2 -150 0 -43 1 -10 3 72 3
83 0 118 -2 78 -3z m139 -15 c2 -19 10 -24 41 -26 29 -3 37 -7 37 -23 0 -16 7
-19 40 -19 36 0 40 -2 40 -25 0 -14 -3 -25 -6 -25 -7 0 -170 96 -191 113 -16
12 -7 27 17 27 12 0 20 -8 22 -22z m81 -93 l147 -90 0 -52 0 -53 -289 0 -288
0 -6 138 c-2 75 -3 141 0 145 3 5 69 7 147 5 l141 -3 148 -90z m-523 -106 c0
-53 -4 -89 -10 -89 -6 0 -10 39 -10 96 0 61 4 93 10 89 6 -3 10 -46 10 -96z
m2510 6 c0 -46 -4 -87 -10 -90 -6 -4 -10 28 -10 90 0 62 4 94 10 90 6 -3 10
-44 10 -90z m-2449 -22 c2 -421 2 -428 27 -431 46 -7 20 -22 -37 -22 -59 0
-93 15 -49 22 l23 3 2 254 c1 140 5 261 7 268 3 7 10 13 16 13 6 0 10 -41 11
-107z m2394 -1 c0 -56 4 -102 8 -102 5 0 5 -5 1 -11 -3 -6 -6 -79 -6 -162 0
-147 0 -152 21 -155 45 -7 18 -22 -39 -22 -33 0 -60 4 -60 10 0 6 9 10 20 10
11 0 20 6 20 13 2 48 1 296 -1 303 -1 5 -1 14 0 19 1 6 2 49 1 97 -1 91 3 112
23 105 8 -3 12 -37 12 -105z m-1775 73 c0 -14 -3 -25 -6 -25 -9 0 -74 41 -74
46 0 2 18 4 40 4 36 0 40 -2 40 -25z m80 -51 c0 -14 -3 -24 -7 -22 -75 36 -82
48 -28 48 31 0 35 -3 35 -26z m2 -45 c37 -23 68 -43 68 -45 0 -2 -34 -4 -75
-4 l-75 0 0 45 c0 25 3 45 7 45 4 0 37 -19 75 -41z m78 -4 c0 -25 -1 -25 -29
-10 -45 23 -47 35 -7 35 32 0 36 -3 36 -25z m1055 -25 c3 -5 1 -10 -4 -10 -6
0 -11 5 -11 10 0 6 2 10 4 10 3 0 8 -4 11 -10z m-975 -10 c0 -5 -13 -10 -29
-10 -17 0 -33 5 -36 10 -4 6 8 10 29 10 20 0 36 -4 36 -10z m1909 -41 c-19
-12 -39 -11 -39 2 0 6 7 9 15 5 8 -3 15 -1 15 5 0 6 5 7 11 3 8 -4 7 -9 -2
-15z"/>
<path d="M6400 6455 c0 -8 5 -15 10 -15 6 0 10 -5 10 -11 0 -5 -5 -7 -12 -3
-7 4 -8 3 -4 -5 4 -6 12 -9 17 -6 13 9 11 35 -3 35 -9 0 -8 4 2 10 13 8 12 10
-2 10 -10 0 -18 -7 -18 -15z"/>
<path d="M6464 6455 c-9 -24 4 -51 18 -37 8 8 15 8 24 1 8 -7 14 -6 20 2 4 8
3 9 -4 5 -8 -5 -12 0 -12 13 0 12 5 21 12 21 6 0 8 3 4 7 -4 5 -14 -1 -22 -11
-12 -17 -14 -18 -14 -3 0 21 -19 22 -26 2z"/>
<path d="M6360 6440 c0 -5 5 -10 10 -10 6 0 10 5 10 10 0 6 -4 10 -10 10 -5 0
-10 -4 -10 -10z"/>
<path d="M6643 6175 c0 -22 2 -30 4 -17 2 12 2 30 0 40 -3 9 -5 -1 -4 -23z"/>
<path d="M6643 6075 c0 -22 2 -30 4 -17 2 12 2 30 0 40 -3 9 -5 -1 -4 -23z"/>
<path d="M6643 5975 c0 -22 2 -30 4 -17 2 12 2 30 0 40 -3 9 -5 -1 -4 -23z"/>
<path d="M6643 5875 c0 -22 2 -30 4 -17 2 12 2 30 0 40 -3 9 -5 -1 -4 -23z"/>
<path d="M6643 5775 c0 -22 2 -30 4 -17 2 12 2 30 0 40 -3 9 -5 -1 -4 -23z"/>
<path d="M6642 5670 c0 -19 2 -27 5 -17 2 9 2 25 0 35 -3 9 -5 1 -5 -18z"/>
<path d="M7386 5781 c-18 -7 -18 -8 5 -25 21 -14 24 -15 27 -1 2 8 8 15 13 15
6 0 7 5 4 10 -7 11 -22 12 -49 1z"/>
<path d="M7377 5704 c3 -9 8 -11 12 -6 3 6 17 12 31 15 19 3 16 5 -12 6 -30 1
-36 -2 -31 -15z"/>
<path d="M7144 5689 c-4 -8 -3 -9 4 -5 7 4 12 3 12 -3 0 -5 -4 -13 -10 -16
-14 -9 -12 -25 3 -25 15 0 21 46 8 55 -5 3 -13 0 -17 -6z"/>
<path d="M7205 5690 c-4 -6 -2 -17 4 -24 6 -7 8 -15 5 -18 -3 -3 10 -5 28 -4
23 1 34 7 36 20 6 29 -14 42 -36 23 -21 -20 -32 -22 -32 -6 0 5 5 7 12 3 7 -4
8 -3 4 4 -9 15 -13 15 -21 2z m65 -26 c0 -8 -4 -14 -10 -14 -5 0 -10 9 -10 21
0 11 5 17 10 14 6 -3 10 -13 10 -21z"/>
<path d="M7106 5671 c-4 -5 -2 -12 3 -15 5 -4 12 -2 15 3 4 5 2 12 -3 15 -5 4
-12 2 -15 -3z"/>
<path d="M7374 5652 c5 -8 66 -4 66 4 0 2 -16 4 -36 4 -19 0 -33 -4 -30 -8z"/>
<path d="M6870 5148 c0 -16 3 -19 9 -10 5 9 18 11 37 7 28 -6 27 -5 -5 10 -42
19 -41 19 -41 -7z"/>
<path d="M7364 5268 c-4 -6 1 -18 12 -27 11 -9 18 -25 16 -35 -3 -15 -6 -16
-12 -5 -5 7 -12 10 -15 7 -10 -10 4 -28 21 -28 8 0 14 7 14 15 0 8 7 15 16 15
10 0 14 -6 10 -15 -3 -8 -1 -15 4 -15 15 0 12 37 -2 43 -10 4 -10 8 1 15 8 6
11 17 8 26 -7 19 -62 22 -73 4z m66 -7 c0 -13 -27 -21 -45 -15 -8 4 -12 10 -9
15 7 12 54 12 54 0z"/>
<path d="M7370 5140 c0 -5 14 -7 33 -3 45 8 47 13 4 13 -20 0 -37 -4 -37 -10z"/>
<path d="M7366 4934 c-9 -24 6 -36 40 -32 21 2 29 8 29 23 0 27 -59 35 -69 9z
m59 -4 c8 -13 -20 -24 -41 -16 -20 8 -9 26 16 26 10 0 22 -5 25 -10z"/>
<path d="M7140 4909 c0 -6 -7 -9 -15 -6 -8 4 -17 2 -20 -3 -4 -6 3 -10 14 -10
12 0 21 -4 21 -10 0 -16 27 -12 34 5 3 8 1 15 -3 15 -5 0 -12 -6 -14 -12 -4
-8 -6 -7 -6 4 -1 9 5 19 12 21 7 3 5 6 -5 6 -10 1 -18 -4 -18 -10z"/>
<path d="M7202 4897 c2 -18 10 -22 38 -22 28 0 35 4 35 20 0 15 -8 20 -38 22
-34 2 -38 0 -35 -20z m28 -2 c0 -8 -4 -15 -10 -15 -5 0 -10 7 -10 15 0 8 5 15
10 15 6 0 10 -7 10 -15z m40 0 c0 -8 -4 -15 -10 -15 -5 0 -10 7 -10 15 0 8 5
15 10 15 6 0 10 -7 10 -15z"/>
<path d="M7365 4880 c-11 -17 11 -36 42 -35 21 0 28 5 28 20 0 15 -8 21 -32
23 -17 2 -34 -2 -38 -8z m25 -10 c0 -5 -5 -10 -11 -10 -5 0 -7 5 -4 10 3 6 8
10 11 10 2 0 4 -4 4 -10z m40 2 c0 -13 -12 -22 -22 -16 -10 6 -1 24 13 24 5 0
9 -4 9 -8z"/>
<path d="M7108 4873 c7 -3 16 -2 19 1 4 3 -2 6 -13 5 -11 0 -14 -3 -6 -6z"/>
<path d="M6432 7215 c2 -14 8 -26 13 -26 6 0 11 12 13 26 2 18 -1 25 -13 25
-12 0 -15 -7 -13 -25z"/>
<path d="M6494 7225 c-10 -25 2 -41 32 -40 33 2 55 28 37 46 -13 13 -33 4 -32
-14 0 -9 2 -9 6 1 2 6 9 12 15 12 6 0 5 -6 -2 -15 -7 -9 -15 -13 -18 -10 -3 3
-11 0 -19 -6 -9 -9 -13 -8 -13 0 0 6 5 11 10 11 6 0 10 7 10 15 0 8 -5 15 -10
15 -6 0 -13 -7 -16 -15z"/>
<path d="M6396 7221 c-4 -5 -2 -12 3 -15 5 -4 12 -2 15 3 4 5 2 12 -3 15 -5 4
-12 2 -15 -3z"/>
<path d="M8078 4873 c14 -5 17 -33 3 -33 -5 0 -12 5 -14 10 -3 6 -4 5 -3 -2 1
-7 10 -14 19 -16 12 -3 17 4 17 22 0 18 -5 26 -17 25 -11 0 -13 -3 -5 -6z"/>
<path d="M8142 4855 c0 -16 2 -22 5 -12 2 9 2 23 0 30 -3 6 -5 -1 -5 -18z"/>
<path d="M8170 4864 c0 -8 5 -12 10 -9 6 3 10 -2 10 -11 0 -10 3 -15 6 -11 8
8 -5 47 -17 47 -5 0 -9 -7 -9 -16z"/>
<path d="M6060 4660 c0 -31 18 -47 43 -37 10 4 12 16 8 39 -5 32 -6 32 -9 6
-4 -35 -22 -37 -22 -3 0 14 -4 25 -10 25 -5 0 -10 -14 -10 -30z"/>
<path d="M1140 4053 c0 -7 -12 -14 -27 -16 l-28 -4 28 -2 c26 -1 27 -3 29 -58
l1 -58 6 55 6 55 40 6 40 6 -35 2 c-20 0 -41 6 -48 13 -9 9 -12 9 -12 1z"/>
<path d="M1182 3989 c10 -17 10 -23 1 -26 -7 -3 -13 -9 -13 -13 0 -5 14 -3 31
4 39 16 38 28 0 44 -30 12 -31 12 -19 -9z"/>
<path d="M580 3040 l0 -840 -117 -2 -118 -2 115 -5 115 -6 3 -713 2 -712 260
0 259 0 4 -117 3 -118 2 118 2 117 370 0 370 0 0 -140 c0 -137 1 -140 23 -145
12 -3 141 -4 287 -3 l265 3 3 142 3 143 369 0 370 0 0 -116 c0 -74 4 -113 10
-109 6 4 10 53 10 116 l0 109 260 0 260 0 0 525 0 524 113 4 112 3 -112 2
-113 2 0 265 0 264 103 4 102 3 -102 2 -103 2 0 760 0 760 -1565 0 -1565 0 0
-840z m3115 625 l0 -200 -152 -3 -153 -3 -2 118 -2 118 -5 -115 -6 -115 -102
-3 c-70 -2 -103 -6 -103 -14 0 -7 -12 11 -26 40 -33 66 -94 119 -162 138 -78
23 -82 19 -82 -81 l0 -85 -752 2 -753 3 -6 110 -5 110 -2 -112 -2 -113 -395 0
-395 0 0 205 0 205 1553 -2 1552 -3 0 -200z m-666 -69 c67 -36 121 -120 130
-206 l6 -55 108 3 107 3 2 -43 1 -43 4 43 4 42 42 0 c23 0 66 -3 95 -6 l52 -7
-2 -271 -3 -271 -35 -5 -35 -5 -1 -75 c-1 -41 -2 -105 -3 -142 l-1 -68 -300 0
-300 0 -6 28 c-15 70 -29 94 -71 132 -25 22 -54 40 -64 40 -18 0 -19 15 -19
320 l0 320 84 0 83 0 7 38 c3 20 6 87 6 148 l0 112 41 -9 c23 -5 53 -16 68
-23z m-1989 -156 c0 -6 -82 -11 -212 -12 l-213 -3 -3 -442 c-1 -284 -6 -443
-12 -443 -6 0 -10 162 -10 455 l0 455 225 0 c140 0 225 -4 225 -10z m340 -5
c0 -13 -22 -15 -162 -13 -118 2 -162 6 -166 16 -3 9 34 12 162 12 142 0 166
-2 166 -15z m340 0 c0 -13 -25 -15 -165 -15 -140 0 -165 2 -165 15 0 13 25 15
165 15 140 0 165 -2 165 -15z m1170 5 c0 -7 -200 -10 -580 -10 -380 0 -580 3
-580 10 0 7 200 10 580 10 380 0 580 -3 580 -10z m370 0 c0 -5 -16 -10 -35
-10 -19 0 -35 5 -35 10 0 6 16 10 35 10 19 0 35 -4 35 -10z m120 -5 c0 -12
-13 -15 -55 -15 -42 0 -55 3 -55 15 0 12 13 15 55 15 42 0 55 -3 55 -15z m130
0 c0 -12 -13 -15 -60 -15 -47 0 -60 3 -60 15 0 12 13 15 60 15 47 0 60 -3 60
-15z m190 -500 c0 -451 -2 -515 -15 -515 -13 0 -15 63 -15 505 l0 505 -75 0
c-43 0 -75 4 -75 10 0 6 37 10 90 10 l90 0 0 -515z m-2452 468 c-32 -2 -86 -2
-120 0 -35 2 -9 3 57 3 66 0 94 -1 63 -3z m120 0 c-10 -2 -28 -2 -40 0 -13 2
-5 4 17 4 22 1 32 -1 23 -4z m260 0 c-43 -2 -113 -2 -155 0 -43 1 -8 3 77 3
85 0 120 -2 78 -3z m1725 0 c-13 -2 -33 -2 -45 0 -13 2 -3 4 22 4 25 0 35 -2
23 -4z m120 0 c-13 -2 -35 -2 -50 0 -16 2 -5 4 22 4 28 0 40 -2 28 -4z m-2443
-23 c0 -19 -7 -20 -175 -20 l-175 0 0 -405 c0 -398 0 -405 -20 -405 -20 0 -20
7 -20 425 l0 425 195 0 c188 0 195 -1 195 -20z m1850 0 c0 -17 -8 -19 -82 -22
l-83 -3 -3 -312 c-2 -305 -3 -313 -22 -313 -20 0 -20 7 -20 315 l0 315 -465 0
c-381 0 -465 2 -465 13 0 8 3 17 7 20 3 4 260 7 570 7 552 0 563 0 563 -20z
m368 -2 c3 -14 -3 -18 -27 -18 -29 0 -41 17 -24 34 13 13 48 1 51 -16z m392
-468 c0 -412 -2 -490 -14 -490 -17 0 -26 22 -26 66 0 29 -3 34 -24 34 -19 0
-25 -7 -30 -35 l-7 -35 -414 0 -415 0 0 -35 c0 -29 -4 -35 -21 -35 -18 0 -20
5 -17 48 3 41 5 46 23 43 11 -3 203 -6 428 -8 l407 -3 0 70 0 70 35 0 c44 0
50 14 39 83 -8 47 -12 52 -39 58 l-30 6 35 4 35 4 0 300 0 300 -37 3 c-23 2
-38 8 -38 16 0 21 11 26 62 26 l48 0 0 -490z m-2260 460 c0 -19 -7 -20 -154
-20 -93 0 -157 4 -161 10 -15 25 13 30 161 30 147 0 154 -1 154 -20z m330 0
c0 -19 -7 -20 -160 -20 -127 0 -160 3 -160 13 0 8 3 17 7 20 3 4 75 7 160 7
146 0 153 -1 153 -20z m1670 0 c0 -17 -7 -20 -50 -20 -43 0 -50 3 -50 20 0 17
7 20 50 20 43 0 50 -3 50 -20z m120 0 c0 -18 -7 -20 -55 -20 -48 0 -55 2 -55
20 0 18 7 20 55 20 48 0 55 -2 55 -20z m-2119 -72 l2 -43 6 40 c6 39 7 40 51
43 25 2 150 1 278 -3 228 -7 232 -8 233 -29 2 -20 2 -20 6 2 l4 22 340 0 339
0 0 -145 0 -145 -27 -1 -28 -2 28 -4 c24 -4 27 -8 27 -44 0 -24 -5 -39 -12
-40 -10 0 -10 -2 0 -6 6 -2 12 -20 12 -39 0 -25 -4 -34 -17 -35 -17 -1 -17 -2
0 -6 20 -5 25 -72 5 -74 -10 0 -10 -2 0 -6 20 -8 15 -81 -5 -86 -14 -4 -12 -5
5 -6 12 0 22 -6 22 -12 0 -8 5 -8 15 1 20 17 89 5 132 -21 40 -25 83 -95 83
-134 l0 -28 -102 6 c-57 4 -104 11 -106 17 -2 5 -18 9 -35 9 -25 -1 -27 -3 -9
-6 16 -3 22 -9 18 -20 -3 -8 -6 -23 -6 -34 0 -13 -7 -19 -22 -20 -23 -2 -23
-2 -1 -6 17 -3 22 -13 25 -49 3 -42 1 -45 -28 -54 -57 -19 -124 -111 -124
-170 0 -18 6 -20 75 -20 l75 0 0 -57 c-1 -58 -1 -58 -43 -79 -50 -24 -94 -85
-103 -142 l-7 -42 79 -2 c58 -2 44 -4 -55 -8 l-135 -5 -11 -65 c-13 -75 -31
-114 -72 -151 -42 -39 -73 -57 -120 -67 l-43 -10 0 82 c0 44 -3 111 -6 148
l-7 67 -111 3 -111 3 -3 31 -3 32 -175 1 -174 1 0 -34 0 -34 -67 -8 c-50 -6
-59 -9 -35 -12 29 -3 33 -6 30 -30 -2 -21 -10 -28 -33 -33 -38 -7 91 -20 185
-17 36 0 98 0 138 0 l72 -2 0 -415 0 -415 -208 0 c-115 0 -277 -3 -360 -7
l-152 -6 -2 44 -1 44 -4 -42 -4 -43 -52 0 c-29 0 -116 3 -194 7 l-143 6 0 414
0 413 118 0 c138 0 245 11 197 20 -24 4 -31 11 -33 33 -3 24 0 27 30 28 33 1
33 1 -7 10 -22 4 -99 8 -171 8 l-131 1 -7 38 c-3 20 -6 103 -6 185 l0 147 43
2 42 1 -44 4 -44 4 6 241 c4 133 7 387 7 564 l0 324 178 3 c97 1 248 4 335 5
l157 2 1 -42z m2169 -588 c0 -5 -4 -10 -9 -10 -6 0 -13 5 -16 10 -3 6 1 10 9
10 9 0 16 -4 16 -10z m33 -35 c1 -6 -10 -11 -25 -13 -31 -4 -39 14 -10 21 23
6 33 4 35 -8z m-38 -35 c-3 -5 -11 -10 -16 -10 -6 0 -7 5 -4 10 3 6 11 10 16
10 6 0 7 -4 4 -10z m-2927 -278 c2 -140 0 -162 -13 -162 -13 0 -15 24 -15 166
0 128 3 165 13 162 9 -4 13 -48 15 -166z m70 -5 c2 -152 2 -157 -18 -157 -19
0 -20 6 -20 161 0 147 1 160 18 157 15 -3 17 -20 20 -161z m2892 98 c0 -8 -4
-15 -10 -15 -5 0 -10 7 -10 15 0 8 5 15 10 15 6 0 10 -7 10 -15z m3 -52 c7
-39 2 -43 -56 -45 l-52 -1 55 -6 54 -6 -3 -95 c-1 -52 -6 -99 -10 -103 -8 -8
-782 -2 -963 8 -76 5 -108 10 -108 19 0 29 52 113 83 134 19 12 62 28 96 34
60 11 61 12 61 45 l0 33 413 3 c226 1 415 3 418 5 4 1 9 -10 12 -25z m117 -23
c0 -11 -6 -20 -14 -20 -18 0 -29 16 -21 30 11 18 35 11 35 -10z m-62 -2 c-7
-19 -38 -22 -38 -4 0 10 9 16 21 16 12 0 19 -5 17 -12z m-3 -48 c0 -8 -8 -16
-17 -18 -13 -2 -18 3 -18 18 0 15 5 20 18 18 9 -2 17 -10 17 -18z m60 -5 c0
-10 -5 -20 -11 -22 -13 -4 -27 24 -18 38 9 15 29 4 29 -16z m0 -163 c0 -166
-19 -162 -23 4 -2 99 0 125 10 122 10 -4 13 -36 13 -126z m-55 -2 c0 -98 -3
-120 -14 -120 -9 0 -16 12 -18 28 l-3 27 -447 3 c-394 2 -448 0 -448 -13 0 -8
-9 -15 -20 -15 -14 0 -20 7 -20 23 l0 22 467 0 468 0 3 83 c2 64 6 82 17 82
12 0 15 -21 15 -120z m-3022 -132 c-2 -118 -6 -162 -15 -166 -10 -3 -13 34
-13 162 0 142 2 166 15 166 13 0 15 -22 13 -162z m67 2 c0 -139 -2 -155 -17
-158 -17 -3 -18 10 -18 158 0 148 1 161 18 158 15 -3 17 -19 17 -158z m2900
-32 c4 -40 5 -95 3 -123 l-3 -50 -45 -6 -45 -5 45 -5 45 -4 -4 -455 c-2 -250
-4 -456 -5 -456 0 -1 -88 -5 -193 -9 l-193 -7 0 35 c0 20 -4 39 -10 42 -6 4
-10 -10 -10 -36 l0 -42 -142 6 c-79 4 -176 7 -215 7 l-73 0 0 475 0 475 -114
0 c-63 0 -117 4 -120 8 -10 17 15 83 45 117 32 35 90 63 149 69 23 2 36 9 38
20 3 14 42 16 422 16 l418 0 7 -72z m110 -79 c0 -77 -3 -94 -15 -94 -12 0 -16
16 -18 75 -3 85 3 123 21 117 8 -2 12 -33 12 -98z m-60 -4 c0 -78 -2 -90 -17
-93 -16 -3 -18 7 -18 93 0 86 2 96 18 93 15 -3 17 -15 17 -93z m-1870 -55 c3
-5 -1 -10 -9 -10 -9 0 -16 5 -16 10 0 6 4 10 9 10 6 0 13 -4 16 -10z m75 0 c0
-5 -7 -10 -16 -10 -8 0 -12 5 -9 10 3 6 10 10 16 10 5 0 9 -4 9 -10z m-112
-30 c-4 -27 -2 -30 24 -30 24 0 28 4 28 30 0 17 5 30 10 30 6 0 10 -13 10 -30
0 -25 4 -30 25 -30 21 0 25 5 26 33 l2 32 6 -35 6 -35 113 -3 c103 -2 112 -4
112 -22 0 -17 -10 -19 -112 -22 -62 -2 -149 -1 -193 2 l-80 5 2 48 c1 46 1 47
-28 47 -28 0 -29 -1 -29 -50 0 -27 -4 -50 -10 -50 -5 0 -10 23 -10 50 0 47 -2
50 -25 50 -23 0 -25 -3 -25 -50 l0 -50 -40 0 c-33 0 -40 3 -40 19 0 15 8 21
33 23 28 3 32 7 35 36 l3 32 81 0 80 0 -4 -30z m-1118 -510 l0 -530 135 0 c83
0 135 -4 135 -10 0 -6 -55 -10 -145 -10 l-145 0 0 540 c0 353 3 540 10 540 7
0 10 -183 10 -530z m70 495 l0 -25 140 0 c133 0 140 -1 140 -20 0 -19 -7 -20
-140 -20 l-140 0 0 -445 0 -445 100 0 c93 0 100 -1 100 -20 0 -19 -7 -20 -120
-20 l-120 0 0 510 c0 503 0 510 20 510 15 0 20 -7 20 -25z m2030 -480 l0 -475
120 0 c114 0 120 -1 120 -20 0 -20 -5 -20 -342 -18 -297 3 -343 5 -343 18 0
13 30 15 203 18 l202 2 0 445 0 444 -132 3 c-110 3 -133 6 -133 18 0 12 22 15
130 18 71 1 134 7 139 12 35 35 36 20 36 -465z m928 377 c3 -87 2 -92 -18 -92
-19 0 -20 6 -20 96 0 86 2 95 18 92 14 -3 17 -17 20 -96z m60 -6 c2 -89 1 -97
-15 -94 -15 3 -18 16 -21 87 -3 92 1 115 21 109 8 -3 13 -35 15 -102z m-2080
69 c-2 -14 -7 -26 -13 -26 -5 0 -11 12 -13 26 -2 18 1 25 13 25 12 0 15 -7 13
-25z m72 0 c0 -26 -14 -33 -25 -15 -9 14 1 40 15 40 5 0 10 -11 10 -25z m177
-682 c-1 -120 -2 -24 -2 212 0 237 1 335 2 218 2 -116 2 -310 0 -430z m243
528 c0 -59 4 -102 10 -106 19 -12 108 16 150 46 44 32 100 111 100 141 0 16
12 18 135 18 l135 0 0 -415 0 -415 -202 -2 -202 -3 -3 -35 c-11 -138 -86 -228
-210 -255 l-33 -7 0 114 c0 62 -3 130 -6 151 -6 35 -8 37 -45 37 l-39 0 0 415
0 415 105 0 105 0 0 -99z m1588 -442 l-3 -404 -147 -3 c-97 -2 -148 1 -148 8
0 6 49 10 135 10 l135 0 0 398 c0 219 3 402 7 406 4 3 10 3 15 -2 5 -5 7 -190
6 -413z m-58 26 l0 -385 -115 0 c-108 0 -115 1 -115 20 0 18 8 20 98 22 l97 3
3 363 c2 313 4 362 17 362 13 0 15 -51 15 -385z m-2540 -355 c0 -19 -7 -20
-95 -20 -88 0 -95 1 -95 20 0 19 7 20 95 20 88 0 95 -1 95 -20z m200 0 c0 -19
-7 -20 -95 -20 -88 0 -95 1 -95 20 0 19 7 20 95 20 88 0 95 -1 95 -20z m650
-11 c0 -18 -12 -19 -310 -19 -302 0 -310 0 -310 20 0 19 8 20 267 22 330 4
353 2 353 -23z m1220 11 c0 -19 -7 -20 -95 -20 -88 0 -95 1 -95 20 0 19 7 20
95 20 88 0 95 -1 95 -20z m205 0 c0 -12 -18 -16 -92 -18 -88 -3 -93 -2 -93 18
0 20 5 21 93 18 74 -2 92 -6 92 -18z m-2275 -65 c0 -12 -18 -15 -100 -15 -82
0 -100 3 -100 15 0 12 18 15 100 15 82 0 100 -3 100 -15z m208 -2 c3 -10 -21
-13 -97 -13 -84 0 -101 3 -101 15 0 13 15 15 97 13 66 -2 98 -7 101 -15z
m1862 2 c0 -12 -18 -15 -100 -15 -92 0 -112 5 -93 23 3 4 48 7 100 7 76 0 93
-3 93 -15z m210 0 c0 -12 -17 -15 -95 -15 -78 0 -95 3 -95 15 0 12 17 15 95
15 78 0 95 -3 95 -15z m-1420 -5 c0 -6 -113 -10 -320 -10 -207 0 -320 4 -320
10 0 6 113 10 320 10 207 0 320 -4 320 -10z m285 -11 c-4 -5 31 -9 84 -9 l91
0 0 -135 0 -135 -275 0 -275 0 0 135 0 135 55 0 55 0 0 -91 0 -92 41 7 c87 14
178 88 200 162 7 23 17 40 21 38 5 -3 6 -10 3 -15z m715 11 c0 -6 -123 -10
-350 -10 -227 0 -350 4 -350 10 0 6 123 10 350 10 227 0 350 -4 350 -10z"/>
<path d="M1301 3661 c-23 -15 -5 -41 29 -41 23 0 30 5 30 19 0 27 -32 39 -59
22z m49 -21 c0 -5 -11 -10 -25 -10 -14 0 -25 5 -25 10 0 6 11 10 25 10 14 0
25 -4 25 -10z"/>
<path d="M1421 3661 c-21 -14 -5 -41 24 -41 29 0 45 27 24 41 -8 5 -18 9 -24
9 -5 0 -16 -4 -24 -9z m49 -21 c0 -5 -11 -10 -25 -10 -14 0 -25 5 -25 10 0 6
11 10 25 10 14 0 25 -4 25 -10z"/>
<path d="M3412 3648 c-17 -17 -15 -28 8 -36 14 -5 17 -11 10 -22 -9 -13 -11
-13 -21 0 -8 12 -10 12 -7 -5 4 -24 38 -34 38 -11 0 9 5 16 10 16 6 0 10 -7
10 -16 0 -8 5 -12 10 -9 7 4 6 13 -1 26 -7 14 -7 24 0 33 22 26 -32 49 -57 24z
m53 -8 c8 -13 -20 -24 -41 -16 -20 8 -9 26 16 26 10 0 22 -5 25 -10z"/>
<path d="M1310 3601 l-24 -7 24 -17 c23 -16 26 -16 37 -1 7 9 10 21 7 25 -6
10 -8 10 -44 0z"/>
<path d="M1410 3590 c0 -11 4 -20 10 -20 5 0 7 7 4 15 -4 8 -2 15 4 15 5 0 15
-7 22 -15 18 -22 30 -18 30 8 0 17 -2 19 -10 7 -7 -12 -12 -12 -22 -2 -18 18
-38 14 -38 -8z"/>
<path d="M3287 3596 c-3 -7 -1 -18 5 -24 8 -8 8 -15 -1 -26 -7 -8 -10 -20 -6
-26 10 -16 45 -12 45 5 0 8 5 15 11 15 6 0 8 -7 4 -17 -5 -14 -4 -15 6 -6 10
10 9 16 -1 28 -11 14 -11 18 0 25 7 4 10 15 7 24 -8 20 -63 22 -70 2z m58 -5
c3 -5 1 -12 -5 -16 -14 -9 -52 4 -45 16 8 12 42 12 50 0z m-25 -61 c0 -5 -4
-10 -9 -10 -6 0 -13 5 -16 10 -3 6 1 10 9 10 9 0 16 -4 16 -10z"/>
<path d="M1293 3544 c-3 -8 0 -21 6 -27 9 -9 11 -8 6 6 -5 12 -2 17 9 17 9 0
19 -7 22 -15 9 -23 24 -18 24 8 0 15 -3 18 -9 9 -6 -10 -10 -10 -21 3 -16 19
-29 19 -37 -1z"/>
<path d="M1417 3553 c-11 -10 -8 -43 3 -43 5 0 7 7 4 15 -4 8 -2 15 4 15 5 0
15 -7 22 -15 18 -22 30 -18 30 8 0 15 -3 18 -9 9 -6 -10 -10 -10 -21 3 -14 16
-23 19 -33 8z"/>
<path d="M3410 3525 c0 -8 5 -15 10 -15 6 0 10 4 10 9 0 5 10 12 23 14 16 3
13 5 -10 6 -23 1 -33 -3 -33 -14z"/>
<path d="M3034 3365 c0 -93 2 -133 3 -88 2 45 2 122 0 170 -1 48 -3 12 -3 -82z"/>
<path d="M3064 3385 c-9 -22 9 -37 37 -33 16 2 24 10 24 23 0 26 -52 35 -61
10z m51 -4 c3 -5 1 -13 -5 -16 -15 -9 -43 3 -35 15 8 13 32 13 40 1z"/>
<path d="M2943 3374 c-3 -9 0 -20 8 -25 12 -8 12 -10 0 -18 -21 -14 -5 -41 24
-41 30 0 43 24 25 45 -9 10 -9 15 -1 15 6 0 11 9 11 20 0 16 -7 20 -30 20 -19
0 -33 -6 -37 -16z m57 -3 c0 -15 -16 -22 -34 -15 -25 9 -19 24 9 24 14 0 25
-4 25 -9z m-2 -58 c2 -8 -6 -13 -22 -13 -25 0 -33 10 -19 24 10 10 36 3 41
-11z"/>
<path d="M3060 3320 c0 -11 4 -20 10 -20 5 0 7 7 4 15 -4 8 -2 15 4 15 5 0 15
-7 22 -15 18 -22 30 -18 30 8 0 16 -3 18 -9 8 -6 -9 -11 -10 -15 -2 -12 19
-46 13 -46 -9z"/>
<path d="M3063 3274 c-3 -8 -1 -20 5 -26 8 -8 9 -5 5 11 -7 27 5 27 34 -1 l23
-21 0 29 c0 22 -3 25 -10 14 -7 -12 -12 -12 -22 -2 -16 16 -27 15 -35 -4z"/>
<path d="M2950 3255 c7 -9 16 -12 19 -7 3 5 15 12 26 15 11 3 3 5 -19 6 -34 1
-37 -1 -26 -14z"/>
<path d="M2911 2778 c-1 -36 0 -37 33 -36 18 1 33 6 32 12 0 6 4 11 9 11 6 0
9 -6 9 -13 -2 -9 2 -10 11 -2 10 8 14 7 18 -2 3 -7 5 1 5 17 0 17 -2 25 -5 18
-3 -9 -9 -10 -23 -1 -14 9 -22 9 -34 -1 -11 -9 -16 -10 -16 -2 0 6 -6 11 -14
11 -8 0 -17 6 -19 13 -3 6 -6 -5 -6 -25z m29 -13 c0 -8 -4 -15 -10 -15 -5 0
-10 7 -10 15 0 8 5 15 10 15 6 0 10 -7 10 -15z"/>
<path d="M3043 2775 c0 -22 2 -30 4 -17 2 12 2 30 0 40 -3 9 -5 -1 -4 -23z"/>
<path d="M3067 2784 c-11 -11 -8 -44 4 -44 5 0 7 5 4 10 -3 6 3 10 15 10 13 0
20 5 18 13 -5 14 -31 21 -41 11z"/>
<path d="M3120 2765 c0 -14 2 -25 4 -25 2 0 6 11 8 25 3 14 1 25 -3 25 -5 0
-9 -11 -9 -25z"/>
<path d="M3180 2780 c0 -5 -8 -11 -17 -13 -17 -4 -17 -5 0 -6 9 0 17 -7 18
-13 0 -7 5 -2 11 12 10 25 10 25 18 3 7 -18 17 -21 55 -21 48 0 69 18 46 41
-9 9 -16 9 -31 -1 -10 -6 -22 -8 -25 -3 -6 11 -75 12 -75 1z m70 -15 c0 -8 -7
-15 -15 -15 -16 0 -20 12 -8 23 11 12 23 8 23 -8z m52 0 c0 -5 -5 -11 -11 -13
-6 -2 -11 4 -11 13 0 9 5 15 11 13 6 -2 11 -8 11 -13z"/>
<path d="M3331 2763 l1 -28 8 25 8 25 1 -25 2 -25 14 25 14 25 10 -25 11 -25
-3 25 c-2 20 -8 26 -34 28 -30 3 -33 1 -32 -25z"/>
<path d="M3548 2565 c-5 -22 -2 -25 23 -25 24 0 29 4 29 25 0 20 -5 25 -24 25
-17 0 -25 -7 -28 -25z m26 -1 c3 -8 2 -12 -4 -9 -6 3 -10 10 -10 16 0 14 7 11
14 -7z"/>
<path d="M1953 3220 c0 -25 2 -35 4 -22 2 12 2 32 0 45 -2 12 -4 2 -4 -23z"/>
<path d="M2121 3158 c2 -43 2 -43 8 -8 4 25 12 36 31 41 23 6 22 7 -7 8 -32 1
-33 0 -32 -41z"/>
<path d="M2238 3193 c12 -2 30 -2 40 0 9 3 -1 5 -23 4 -22 0 -30 -2 -17 -4z"/>
<path d="M2338 3193 c12 -2 32 -2 45 0 12 2 2 4 -23 4 -25 0 -35 -2 -22 -4z"/>
<path d="M2453 3193 c25 -4 27 -8 27 -49 0 -24 5 -44 11 -44 6 0 9 19 7 48 -3
46 -4 47 -38 48 -26 1 -28 1 -7 -3z"/>
<path d="M1953 3110 c0 -25 2 -35 4 -22 2 12 2 32 0 45 -2 12 -4 2 -4 -23z"/>
<path d="M2120 3060 c0 -16 -7 -20 -37 -22 l-38 -1 35 -4 c19 -3 38 -10 42
-16 4 -7 8 5 8 26 0 20 -2 37 -5 37 -3 0 -5 -9 -5 -20z"/>
<path d="M2480 3035 c0 -19 5 -35 10 -35 6 0 10 6 10 14 0 9 13 16 33 19 l32
4 -32 1 c-22 1 -33 7 -33 17 0 8 -4 15 -10 15 -5 0 -10 -16 -10 -35z"/>
<path d="M1952 3003 c1 -37 1 -37 5 -6 4 27 9 32 36 36 31 4 31 4 -5 5 -38 2
-38 2 -36 -35z"/>
<path d="M2178 3033 c12 -2 32 -2 45 0 12 2 2 4 -23 4 -25 0 -35 -2 -22 -4z"/>
<path d="M2278 3028 c21 -21 15 -68 -10 -78 -23 -10 -23 -10 2 -7 22 2 26 8
31 47 5 37 6 39 7 13 2 -44 19 -42 24 2 4 34 3 35 -31 35 -27 0 -32 -3 -23
-12z"/>
<path d="M2398 3033 c12 -2 30 -2 40 0 9 3 -1 5 -23 4 -22 0 -30 -2 -17 -4z"/>
<path d="M2123 2935 c0 -22 2 -30 4 -17 2 12 2 30 0 40 -3 9 -5 -1 -4 -23z"/>
<path d="M2170 2950 l-35 -7 38 -2 c20 0 37 4 37 9 0 6 -1 9 -2 9 -2 -1 -19
-5 -38 -9z"/>
<path d="M2335 2950 c-19 -8 -19 -9 3 -9 12 -1 22 4 22 9 0 6 -1 10 -2 9 -2 0
-12 -4 -23 -9z"/>
<path d="M2430 2950 l-35 -7 38 -2 c20 0 37 4 37 9 0 6 -1 9 -2 9 -2 -1 -19
-5 -38 -9z"/>
<path d="M2480 2925 c0 -19 5 -35 10 -35 6 0 10 16 10 35 0 19 -4 35 -10 35
-5 0 -10 -16 -10 -35z"/>
<path d="M2540 2950 l-35 -7 38 -2 c20 0 37 4 37 9 0 6 -1 9 -2 9 -2 -1 -19
-5 -38 -9z"/>
<path d="M1950 2695 l0 -255 83 0 c45 -1 123 -1 172 -1 117 -1 153 1 138 8 -7
2 -13 16 -13 29 0 33 -18 30 -23 -3 -2 -16 -5 55 -6 157 -2 102 -5 179 -8 173
-2 -7 -14 -13 -26 -14 -22 0 -22 0 1 -9 22 -9 31 -40 12 -40 -18 0 -70 30 -70
40 0 6 -11 10 -24 10 -41 0 -56 11 -56 40 0 24 5 29 28 33 16 2 10 4 -18 5
-25 0 -39 -2 -32 -5 14 -5 17 -43 3 -43 -5 0 -26 7 -47 17 -38 16 -38 16 -14
24 21 6 18 7 -17 8 -59 1 -73 9 -73 41 0 22 6 30 23 33 19 4 18 4 -5 6 l-28 1
0 -255z m85 125 l60 -28 -67 -1 -68 -1 0 30 c0 17 3 30 8 30 4 -1 34 -14 67
-30z m67 -73 c-2 -18 1 -26 7 -22 6 3 11 -1 11 -9 0 -13 -14 -16 -80 -16 l-80
0 0 40 0 41 73 -3 72 -3 -3 -28z m112 -8 c36 -17 66 -33 66 -35 0 -2 -34 -4
-75 -4 l-75 0 0 35 c0 19 4 35 9 35 5 0 39 -14 75 -31z m-94 -84 l0 -35 -80 0
-80 0 0 35 0 35 80 0 80 0 0 -35z m170 0 l0 -35 -80 0 -80 0 0 35 0 35 80 0
80 0 0 -35z m-172 -87 l3 -38 -80 0 -81 0 0 40 0 41 78 -3 77 -3 3 -37z m167
2 l0 -35 -77 -3 -78 -3 0 41 0 41 78 -3 77 -3 0 -35z m-165 -85 l0 -35 -80 0
-80 0 0 35 0 35 80 0 80 0 0 -35z m170 0 l0 -35 -80 0 -80 0 0 35 0 35 80 0
80 0 0 -35z"/>
<path d="M2053 2943 c9 -2 25 -2 35 0 9 3 1 5 -18 5 -19 0 -27 -2 -17 -5z"/>
<path d="M2310 2895 c0 -33 2 -35 33 -34 23 1 26 3 10 6 -18 3 -23 11 -23 34
0 16 -4 29 -10 29 -5 0 -10 -16 -10 -35z"/>
<path d="M2288 2898 c-2 -18 -11 -24 -43 -29 l-40 -6 42 -2 c23 0 44 -7 46
-13 3 -7 6 6 6 30 1 45 -6 57 -11 20z"/>
<path d="M2418 2863 c12 -2 32 -2 45 0 12 2 2 4 -23 4 -25 0 -35 -2 -22 -4z"/>
<path d="M2518 2863 c12 -2 32 -2 45 0 12 2 2 4 -23 4 -25 0 -35 -2 -22 -4z"/>
<path d="M2480 2815 c0 -19 5 -35 10 -35 6 0 10 16 10 35 0 19 -4 35 -10 35
-5 0 -10 -16 -10 -35z"/>
<path d="M2310 2795 c0 -19 5 -35 10 -35 6 0 10 4 10 9 0 5 8 12 18 14 16 4
16 5 0 6 -11 1 -18 9 -18 21 0 11 -4 20 -10 20 -5 0 -10 -16 -10 -35z"/>
<path d="M1093 2775 c0 -22 2 -30 4 -17 2 12 2 30 0 40 -3 9 -5 -1 -4 -23z"/>
<path d="M1112 2765 c0 -16 2 -22 5 -12 2 9 2 23 0 30 -3 6 -5 -1 -5 -18z"/>
<path d="M1136 2770 c3 -14 8 -27 10 -29 7 -8 24 11 24 27 0 14 -2 14 -9 3 -7
-11 -11 -10 -20 5 -11 17 -11 16 -5 -6z"/>
<path d="M1182 2765 c0 -16 2 -22 5 -12 2 9 2 23 0 30 -3 6 -5 -1 -5 -18z"/>
<path d="M1207 2784 c-4 -4 -7 -17 -7 -28 1 -19 2 -19 15 4 l14 25 10 -25 11
-25 -3 25 c-2 24 -26 38 -40 24z"/>
<path d="M1260 2765 c0 -17 6 -25 18 -26 14 0 14 -2 -3 -9 -19 -8 -19 -9 3 -9
19 -1 22 4 22 34 0 28 -4 35 -20 35 -15 0 -20 -7 -20 -25z m30 0 c0 -8 -4 -15
-10 -15 -5 0 -10 7 -10 15 0 8 5 15 10 15 6 0 10 -7 10 -15z"/>
<path d="M1341 2762 l0 -27 11 25 10 25 9 -22 c10 -27 17 -30 15 -7 0 9 5 19
13 22 10 3 13 -1 9 -16 -5 -18 -1 -20 38 -19 34 0 44 5 49 21 6 20 7 20 15 -4
l7 -25 11 25 10 25 11 -25 11 -25 -3 25 c-2 21 -8 26 -36 28 -20 2 -37 -2 -42
-10 -7 -10 -9 -10 -9 0 0 6 -9 12 -20 12 -11 0 -20 -5 -20 -11 0 -8 -4 -8 -12
-2 -7 6 -28 11 -45 11 -29 1 -33 -2 -32 -26z m119 3 c0 -8 -4 -15 -10 -15 -5
0 -10 7 -10 15 0 8 5 15 10 15 6 0 10 -7 10 -15z"/>
<path d="M2418 2783 c12 -2 30 -2 40 0 9 3 -1 5 -23 4 -22 0 -30 -2 -17 -4z"/>
<path d="M2528 2783 c12 -2 30 -2 40 0 9 3 -1 5 -23 4 -22 0 -30 -2 -17 -4z"/>
<path d="M2480 2709 c0 -32 3 -39 13 -31 7 6 30 12 52 15 l40 4 -42 1 c-39 2
-43 5 -43 27 0 14 -4 25 -10 25 -5 0 -10 -19 -10 -41z"/>
<path d="M2310 2685 c0 -19 5 -35 10 -35 6 0 10 9 10 19 0 12 8 21 23 24 l22
4 -22 2 c-13 0 -23 6 -23 11 0 6 -4 10 -10 10 -5 0 -10 -16 -10 -35z"/>
<path d="M2418 2693 c12 -2 30 -2 40 0 9 3 -1 5 -23 4 -22 0 -30 -2 -17 -4z"/>
<path d="M2480 2605 c0 -19 5 -35 10 -35 6 0 10 9 10 19 0 16 8 21 43 24 l42
4 -42 1 c-24 1 -43 7 -43 12 0 6 -4 10 -10 10 -5 0 -10 -16 -10 -35z"/>
<path d="M2630 2619 c-24 -7 -24 -7 -2 -8 17 -1 22 -7 23 -28 l1 -28 9 30 c10
36 2 44 -31 34z"/>
<path d="M2317 2613 c-11 -10 -8 -63 3 -63 6 0 10 13 10 29 0 23 5 31 23 34
20 4 20 4 -4 6 -14 0 -29 -2 -32 -6z"/>
<path d="M2418 2613 c12 -2 30 -2 40 0 9 3 -1 5 -23 4 -22 0 -30 -2 -17 -4z"/>
<path d="M2320 2529 c0 -5 11 -9 25 -9 14 0 25 2 25 4 0 2 -11 6 -25 8 -14 3
-25 1 -25 -3z"/>
<path d="M2418 2523 c12 -2 30 -2 40 0 9 3 -1 5 -23 4 -22 0 -30 -2 -17 -4z"/>
<path d="M2480 2486 c0 -25 3 -46 8 -48 4 -2 25 -1 47 3 l40 6 -37 2 c-21 0
-38 3 -38 5 0 1 5 17 11 34 8 24 17 32 42 35 31 4 31 4 -5 5 -21 1 -38 -3 -41
-10 -4 -10 -6 -10 -6 0 -1 6 -5 12 -11 12 -5 0 -10 -20 -10 -44z"/>
<path d="M2398 2443 c12 -2 32 -2 45 0 12 2 2 4 -23 4 -25 0 -35 -2 -22 -4z"/>
<path d="M1138 1803 c12 -2 32 -2 45 0 12 2 2 4 -23 4 -25 0 -35 -2 -22 -4z"/>
<path d="M1278 1803 c12 -2 32 -2 45 0 12 2 2 4 -23 4 -25 0 -35 -2 -22 -4z"/>
<path d="M1138 1733 c12 -2 32 -2 45 0 12 2 2 4 -23 4 -25 0 -35 -2 -22 -4z"/>
<path d="M1278 1733 c12 -2 32 -2 45 0 12 2 2 4 -23 4 -25 0 -35 -2 -22 -4z"/>
<path d="M1122 1335 c0 -22 2 -34 5 -27 4 9 8 10 18 2 10 -8 13 -5 11 15 0 15
-6 23 -13 21 -6 -3 -14 3 -16 12 -3 9 -5 -1 -5 -23z"/>
<path d="M1190 1336 c0 -20 5 -36 11 -36 5 0 7 5 4 10 -3 6 -1 10 4 10 6 0 11
-4 11 -10 0 -5 9 -10 20 -10 11 0 20 4 20 10 0 5 -7 7 -15 4 -9 -4 -15 0 -15
9 0 9 8 18 18 20 13 4 11 5 -5 6 -13 0 -23 -3 -23 -9 0 -5 -4 -10 -10 -10 -5
0 -7 6 -4 14 3 8 1 17 -5 21 -7 4 -11 -7 -11 -29z"/>
<path d="M1272 1335 c0 -22 3 -30 5 -17 2 12 8 22 13 22 5 0 11 -10 13 -22 4
-20 4 -19 6 5 1 17 -4 27 -13 27 -8 0 -17 6 -19 13 -3 6 -5 -6 -5 -28z"/>
<path d="M1172 1325 c0 -16 2 -22 5 -12 2 9 2 23 0 30 -3 6 -5 -1 -5 -18z"/>
<path d="M1324 1335 c-4 -9 -2 -21 4 -27 15 -15 41 -2 38 19 -4 23 -34 29 -42
8z m30 -10 c3 -9 0 -15 -9 -15 -9 0 -12 6 -9 15 4 8 7 15 9 15 2 0 5 -7 9 -15z"/>
<path d="M1381 1323 c2 -24 2 -25 6 -5 2 12 8 22 13 22 5 0 11 -10 13 -22 4
-20 4 -19 6 5 1 21 -4 27 -19 27 -15 0 -20 -6 -19 -27z"/>
<path d="M3113 2295 c0 -22 2 -30 4 -17 2 12 2 30 0 40 -3 9 -5 -1 -4 -23z"/>
<path d="M3000 2296 c0 -14 4 -27 8 -30 5 -3 9 8 9 24 0 17 -4 30 -9 30 -4 0
-8 -11 -8 -24z"/>
<path d="M3041 2311 c-18 -11 -10 -45 12 -49 12 -3 17 3 17 22 0 29 -10 38
-29 27z m19 -26 c0 -8 -4 -15 -10 -15 -5 0 -10 7 -10 15 0 8 5 15 10 15 6 0
10 -7 10 -15z"/>
<path d="M3186 2293 c10 -40 14 -41 14 -5 0 18 -5 32 -10 32 -6 0 -8 -11 -4
-27z"/>
<path d="M3092 2290 c0 -14 2 -19 5 -12 2 6 2 18 0 25 -3 6 -5 1 -5 -13z"/>
<path d="M3130 2285 c0 -18 5 -25 20 -25 15 0 20 7 20 25 0 18 -5 25 -20 25
-15 0 -20 -7 -20 -25z"/>
<path d="M3210 1381 c0 -5 -13 -12 -30 -16 -16 -4 -30 -13 -30 -21 0 -23 -18
-16 -23 9 -4 20 -4 19 -6 -4 -1 -25 1 -27 49 -27 l50 0 0 34 c0 19 -2 34 -5
34 -3 0 -5 -4 -5 -9z m0 -36 c0 -8 -4 -15 -9 -15 -13 0 -22 16 -14 24 11 11
23 6 23 -9z"/>
<path d="M3097 1373 c-2 -5 -1 -19 4 -33 7 -23 7 -23 8 8 1 31 -3 40 -12 25z"/>
<path d="M3046 1362 c-6 -9 30 -43 37 -36 3 3 3 14 0 25 -5 19 -28 26 -37 11z"/>
<path d="M3233 1337 c2 -43 13 -48 27 -11 13 33 13 54 0 34 -9 -13 -11 -13
-19 0 -7 10 -9 4 -8 -23z"/>
<path d="M2172 1335 c0 -23 3 -30 5 -17 2 12 11 22 18 22 7 0 16 -10 18 -22
l4 -23 2 23 c0 13 -6 25 -16 29 -10 4 -21 11 -25 17 -4 6 -7 -7 -6 -29z"/>
<path d="M2283 1335 c0 -22 2 -30 4 -17 2 12 2 30 0 40 -3 9 -5 -1 -4 -23z"/>
<path d="M2302 1330 c0 -19 2 -27 5 -17 2 9 2 25 0 35 -3 9 -5 1 -5 -18z"/>
<path d="M2245 1340 c17 -7 17 -9 3 -9 -25 -1 -23 -31 2 -31 15 0 20 7 20 25
0 19 -5 25 -22 24 -22 0 -22 -1 -3 -9z"/>
<path d="M4030 3471 c0 -5 -12 -12 -27 -14 -23 -3 -21 -4 10 -6 l37 -1 0 -666
c0 -468 -3 -663 -11 -659 -6 4 -9 21 -7 38 3 30 1 32 -27 29 -41 -5 -44 -11
-16 -34 15 -12 21 -22 14 -26 -5 -4 -13 -14 -16 -22 -4 -11 -6 -10 -6 5 -1 14
-4 16 -12 8 -15 -15 -3 -33 21 -33 13 0 17 5 14 15 -4 10 0 15 11 15 12 0 15
-5 9 -22 -6 -20 -5 -21 10 -9 14 12 16 11 16 -8 0 -18 -3 -19 -24 -10 -17 8
-29 8 -45 0 -25 -14 -26 -24 -6 -41 18 -15 45 -6 45 15 0 9 5 13 10 10 6 -4 7
-11 4 -17 -4 -7 -2 -8 4 -4 9 5 12 -147 12 -614 0 -658 1 -641 -46 -653 -12
-3 -7 -5 13 -6 17 0 35 -5 38 -11 3 -5 13 -10 21 -10 13 0 13 3 0 22 -14 20
-16 164 -16 1341 0 1182 2 1318 16 1324 13 5 12 9 -7 29 -23 25 -39 31 -39 15z
m-22 -1423 c-6 -18 -28 -21 -28 -4 0 9 7 16 16 16 9 0 14 -5 12 -12z"/>
<path d="M3831 2437 c-15 -15 -14 -42 4 -57 20 -16 35 -4 35 30 0 30 -21 45
-39 27z m29 -26 c0 -23 -16 -36 -25 -21 -9 14 1 40 15 40 5 0 10 -9 10 -19z"/>
<path d="M3785 2430 c-3 -5 -3 -15 1 -22 4 -7 3 -8 -4 -4 -7 4 -12 3 -12 -2 0
-8 22 -22 36 -22 2 0 4 14 4 30 0 29 -13 40 -25 20z"/>
<path d="M3770 2311 c-13 -25 -13 -27 6 -46 12 -12 19 -13 30 -4 7 6 17 8 21
6 5 -3 9 4 8 16 0 12 5 22 10 22 6 0 10 -10 10 -22 -1 -14 3 -19 8 -14 14 14
-1 61 -19 61 -9 0 -18 -8 -21 -19 -3 -13 -11 -17 -24 -14 -10 3 -19 10 -19 15
0 6 7 7 16 4 8 -3 12 -2 9 4 -10 16 -23 12 -35 -9z m30 -31 c0 -5 -4 -10 -10
-10 -5 0 -10 5 -10 10 0 6 5 10 10 10 6 0 10 -4 10 -10z"/>
<path d="M390 2280 c0 -5 7 -7 15 -4 8 4 15 2 15 -4 0 -5 -7 -15 -15 -22 -22
-18 -18 -30 8 -30 16 0 18 3 8 9 -9 6 -10 11 -2 15 19 12 13 46 -9 46 -11 0
-20 -4 -20 -10z"/>
<path d="M457 2270 c-15 -22 -15 -24 1 -36 23 -17 33 -4 24 31 l-8 29 -17 -24z"/>
<path d="M504 2276 c-9 -23 0 -51 17 -54 18 -3 31 30 22 54 -7 18 -32 18 -39
0z m26 -21 c0 -14 -4 -25 -10 -25 -5 0 -10 11 -10 25 0 14 5 25 10 25 6 0 10
-11 10 -25z"/>
<path d="M390 2160 c0 -5 7 -7 15 -4 8 4 15 2 15 -4 0 -5 -7 -15 -15 -22 -22
-18 -18 -30 8 -29 12 0 16 3 10 6 -10 3 -9 10 2 27 8 12 12 26 8 29 -10 11
-43 8 -43 -3z"/>
<path d="M474 2161 c3 -4 -3 -19 -14 -31 -25 -29 -25 -30 8 -30 21 0 24 2 12
10 -12 7 -12 12 -2 22 15 15 16 38 1 38 -5 0 -8 -4 -5 -9z"/>
<path d="M502 2138 c4 -39 32 -51 41 -18 8 31 -2 50 -25 50 -16 0 -19 -6 -16
-32z m28 -3 c0 -14 -4 -25 -10 -25 -5 0 -10 11 -10 25 0 14 5 25 10 25 6 0 10
-11 10 -25z"/>
<path d="M3777 1903 c-2 -5 0 -21 4 -38 7 -29 7 -29 8 8 1 35 -3 46 -12 30z"/>
<path d="M3820 1890 c0 -11 5 -19 11 -17 6 1 14 -4 16 -12 4 -10 0 -11 -17 -6
-15 5 -20 4 -16 -4 10 -15 46 -14 46 1 0 9 3 9 12 0 27 -27 55 0 43 39 -8 25
-35 24 -42 0 -4 -17 -8 -18 -24 -8 -18 11 -18 12 -1 19 14 5 13 7 -5 7 -17 1
-23 -5 -23 -19z m85 -15 c0 -10 -6 -20 -12 -22 -8 -3 -13 5 -13 22 0 17 5 25
13 23 6 -3 12 -13 12 -23z"/>
<path d="M3777 1783 c-2 -5 0 -21 4 -38 7 -29 7 -29 8 8 1 35 -3 46 -12 30z"/>
<path d="M3820 1770 c0 -13 5 -18 15 -14 10 4 15 0 15 -11 0 -12 -5 -15 -22
-10 -19 6 -21 5 -10 -6 10 -11 16 -11 32 -1 12 7 21 8 25 2 18 -30 51 5 40 41
-9 26 -45 25 -45 -1 0 -18 -3 -19 -20 -8 -18 12 -19 13 -2 20 14 5 13 7 -5 7
-16 1 -23 -5 -23 -19z m84 1 c8 -12 -3 -41 -15 -41 -5 0 -9 11 -9 25 0 25 14
34 24 16z"/>
<path d="M1006 705 c-3 -8 3 -20 14 -28 13 -9 16 -17 9 -27 -8 -13 -10 -13
-20 0 -8 12 -10 12 -7 -5 4 -24 38 -34 38 -11 0 9 7 16 16 16 11 0 14 -5 9
-17 -5 -14 -4 -15 6 -6 10 10 9 15 -1 28 -10 12 -10 18 0 30 6 8 9 19 5 25 -9
15 -62 12 -69 -5z m58 -4 c8 -12 -20 -22 -39 -15 -19 8 -9 24 15 24 10 0 21
-4 24 -9z"/>
<path d="M1124 708 c-4 -6 2 -19 14 -28 14 -12 17 -21 11 -31 -8 -12 -11 -12
-20 1 -8 12 -10 12 -7 -5 4 -24 38 -34 38 -11 0 9 5 16 10 16 6 0 10 -8 10
-17 0 -15 2 -16 10 -3 5 9 5 19 -2 28 -8 9 -8 16 0 24 6 6 8 17 5 24 -6 17
-59 19 -69 2z m56 -7 c0 -6 -5 -13 -10 -16 -15 -9 -43 3 -35 15 8 13 45 13 45
1z"/>
<path d="M3084 706 c-6 -15 28 -56 47 -56 6 0 9 -7 5 -15 -3 -8 -1 -15 4 -15
14 0 13 37 -1 46 -8 5 -7 9 1 14 7 4 10 15 7 24 -8 20 -56 21 -63 2z m54 -8
c-3 -7 -13 -13 -23 -13 -10 0 -20 6 -22 13 -3 7 5 12 22 12 17 0 25 -5 23 -12z"/>
<path d="M3203 704 c-4 -10 0 -22 10 -29 9 -7 12 -16 7 -24 -6 -11 -9 -11 -14
0 -3 8 -5 6 -3 -6 1 -11 10 -21 20 -23 12 -2 15 1 11 12 -4 11 0 16 11 16 11
0 15 -5 11 -15 -3 -8 -1 -15 4 -15 14 0 13 37 -1 46 -8 5 -7 9 1 14 7 4 10 15
7 24 -8 21 -56 21 -64 0z m55 -6 c-3 -7 -13 -13 -23 -13 -10 0 -20 6 -22 13
-3 7 5 12 22 12 17 0 25 -5 23 -12z"/>
<path d="M3082 645 c2 -11 12 -21 22 -23 11 -2 17 1 14 8 -2 6 -7 11 -12 10
-5 -1 -13 4 -18 12 -7 9 -8 8 -6 -7z"/>
<path d="M1010 591 c0 -6 5 -13 10 -16 6 -3 10 -2 10 4 0 5 10 12 23 14 16 3
13 5 -10 6 -18 0 -33 -3 -33 -8z"/>
<path d="M1130 585 c7 -9 16 -12 19 -7 3 5 15 12 26 15 11 3 3 5 -19 6 -34 1
-37 -1 -26 -14z"/>
<path d="M3086 590 c6 -6 21 -6 39 -1 30 9 30 9 -9 10 -26 1 -37 -2 -30 -9z"/>
<path d="M3200 591 c0 -6 5 -13 10 -16 6 -3 10 -2 10 4 0 5 12 12 28 14 22 3
20 4 -10 6 -21 0 -38 -3 -38 -8z"/>
<path d="M1142 378 c-2 -54 -3 -57 -29 -61 l-28 -4 28 -2 c15 0 27 -6 27 -13
0 -9 3 -9 12 0 7 7 28 13 48 13 l35 2 -40 6 -40 6 -6 55 -6 55 -1 -57z"/>
<path d="M1182 389 c10 -17 10 -23 1 -26 -7 -3 -13 -9 -13 -13 0 -5 14 -3 31
4 39 16 38 28 0 44 -30 12 -31 12 -19 -9z"/>
<path d="M2034 299 c-3 -6 -2 -14 4 -18 5 -3 12 -17 15 -31 3 -16 5 -10 6 18
1 40 -10 54 -25 31z"/>
<path d="M2095 300 c-3 -5 -2 -10 4 -10 5 0 12 -15 14 -32 3 -29 4 -27 5 10 2
39 -9 55 -23 32z"/>
<path d="M2144 286 c-3 -13 -1 -34 6 -45 l11 -21 -771 0 c-829 0 -793 -2 -803
51 -3 17 -5 13 -6 -13 0 -20 -5 -40 -11 -43 -5 -3 -10 -11 -10 -18 0 -8 3 -8
12 1 18 18 3094 17 3101 0 3 -9 14 -4 33 15 16 15 23 27 16 27 -6 0 -13 12
-13 28 -1 23 -2 22 -8 -8 l-6 -35 -758 -3 c-606 -2 -758 0 -754 10 2 7 19 13
38 13 32 0 34 2 31 30 -5 37 -9 42 -25 26 -9 -9 -9 -14 2 -20 9 -6 10 -11 2
-15 -6 -4 -11 -2 -11 4 0 6 -4 9 -9 5 -5 -3 -12 4 -16 15 -9 28 -43 26 -51 -4z
m36 -16 c0 -32 -14 -40 -24 -15 -6 18 2 45 15 45 5 0 9 -13 9 -30z"/>
<path d="M5331 3623 c-1 -6 -13 -14 -28 -16 l-28 -4 28 -2 c26 -1 27 -4 29
-53 l1 -53 6 50 c6 49 7 50 46 56 l40 6 -42 2 c-23 0 -44 7 -46 14 -4 8 -6 9
-6 0z"/>
<path d="M5370 3565 c10 -12 10 -18 0 -30 -11 -13 -8 -13 19 -4 38 13 40 26 5
39 -34 13 -39 13 -24 -5z"/>
<path d="M8040 3432 c0 -6 -12 -13 -27 -15 -23 -3 -21 -4 10 -6 l37 -1 0
-1236 c0 -1336 3 -1262 -52 -1265 -16 -1 -12 -4 12 -9 19 -4 44 -11 55 -15 16
-7 18 -6 8 6 -17 17 -19 2495 -2 2501 5 2 -1 14 -15 27 -14 14 -26 20 -26 13z"/>
<path d="M4810 2930 l0 -489 -107 -4 -108 -3 108 -2 107 -2 0 -270 0 -269
-107 -4 -108 -3 108 -2 107 -2 0 -490 0 -490 1450 0 1450 0 0 490 0 489 108 4
107 3 -107 2 -108 2 0 245 0 244 93 4 92 3 -92 2 -93 2 0 515 0 515 -1450 0
-1450 0 0 -490z m2890 346 c0 -176 -18 -192 -22 -19 l-3 128 -1417 3 -1418 2
0 -131 c0 -84 -4 -128 -10 -124 -6 4 -10 62 -10 141 l0 134 1440 0 1440 0 0
-134z m-50 -32 c0 -105 -2 -115 -17 -112 -16 3 -18 16 -18 96 0 85 -2 93 -20
98 -11 2 -195 3 -410 2 l-390 -3 -5 -95 c-4 -76 -8 -95 -20 -95 -12 0 -16 19
-20 95 l-5 95 -920 0 -920 0 -3 -97 c-2 -78 -6 -98 -17 -98 -12 0 -15 21 -15
115 l0 115 1390 0 1390 0 0 -116z m-1618 -365 l3 -422 345 -1 345 -1 3 -32 c3
-28 -1 -34 -35 -52 -48 -24 -78 -56 -98 -103 -29 -70 -24 -77 58 -80 l72 -3 0
-145 0 -145 -90 -5 -90 -5 -2 -49 c-3 -83 -73 -158 -167 -182 l-28 -7 3 119 4
119 -70 0 -70 0 4 -111 c2 -75 0 -114 -8 -118 -20 -13 -117 40 -147 79 -26 34
-29 49 -34 129 l-5 91 -130 5 -130 5 -1 110 -1 110 -413 5 -414 5 -8 40 c-5
22 -7 74 -6 115 l3 75 40 6 40 6 -44 2 -44 1 6 137 c4 75 7 228 7 340 l0 203
38 1 37 2 -35 6 -35 6 -3 83 -3 82 550 0 551 0 2 -421z m693 286 l0 -130 -67
-3 -67 -3 -3 73 -3 73 -175 0 -175 0 0 -70 0 -70 -67 -3 -68 -3 0 136 0 135
313 -2 312 -3 0 -130z m860 50 l0 -80 -35 -6 -35 -6 38 -2 37 -1 -2 -167 -3
-168 -32 -3 -33 -3 1 -165 0 -164 33 0 c26 0 35 -5 39 -22 9 -32 1 -38 -51
-40 l-47 -1 50 -6 c31 -4 50 -11 49 -18 -1 -7 -2 -49 -2 -94 l-2 -80 -417 4
c-230 2 -454 6 -498 8 l-80 4 3 30 c8 72 75 130 169 143 l44 7 0 449 c-1 247
2 452 5 457 3 5 173 8 387 7 l382 -3 0 -80z m-1015 -65 c0 -14 -7 -20 -22 -21
l-23 -2 23 -4 c19 -4 22 -11 22 -49 l0 -44 -160 0 -160 0 0 45 c0 40 3 45 23
46 l22 2 -22 4 c-22 4 -30 23 -16 36 3 4 75 7 160 7 146 0 153 -1 153 -20z
m-1730 -270 c0 -153 -4 -240 -10 -240 -6 0 -10 87 -10 240 0 153 4 240 10 240
6 0 10 -87 10 -240z m60 5 c0 -202 -2 -235 -15 -235 -13 0 -15 33 -15 235 0
202 2 235 15 235 13 0 15 -33 15 -235z m1890 -120 c0 -348 0 -355 -20 -355
-20 0 -20 7 -20 355 0 348 0 355 20 355 20 0 20 -7 20 -355z m860 20 c0 -280
-2 -335 -14 -335 -8 0 -16 7 -20 15 -3 9 -18 15 -36 15 -28 0 -30 2 -30 40 0
38 2 40 30 40 25 0 30 4 30 25 0 21 -5 25 -32 27 l-33 1 33 4 32 4 0 60 c0 56
-1 59 -25 59 -20 0 -25 -5 -25 -25 0 -19 5 -25 23 -26 l22 0 -22 -11 c-12 -6
-24 -18 -26 -27 -3 -9 -5 10 -6 41 -1 57 -1 57 31 60 l32 3 -3 172 c-1 95 0
177 4 183 3 5 13 10 21 10 12 0 14 -50 14 -335z m50 -5 c0 -220 -4 -340 -10
-340 -6 0 -10 120 -10 340 0 220 4 340 10 340 6 0 10 -120 10 -340z m-1465
205 l0 -30 -67 -3 -68 -3 0 36 0 36 68 -3 67 -3 0 -30z m155 0 l0 -35 -70 0
-70 0 0 35 0 35 70 0 70 0 0 -35z m30 -235 c0 -153 -4 -270 -9 -270 -9 0 -13
518 -4 533 2 4 6 7 9 7 2 0 4 -121 4 -270z m150 235 l0 -35 -70 0 -70 0 0 35
0 35 70 0 70 0 0 -35z m155 0 l0 -30 -67 -3 -68 -3 0 36 0 36 68 -3 67 -3 0
-30z m-490 -80 l0 -30 -67 -3 -68 -3 0 36 0 36 68 -3 67 -3 0 -30z m155 0 l0
-35 -70 0 -70 0 0 35 0 35 70 0 70 0 0 -35z m180 0 l0 -35 -70 0 -70 0 0 35 0
35 70 0 70 0 0 -35z m155 0 l0 -30 -67 -3 -68 -3 0 36 0 36 68 -3 67 -3 0 -30z
m-490 -80 l0 -30 -67 -3 -68 -3 0 36 0 36 68 -3 67 -3 0 -30z m155 0 l0 -35
-70 0 -70 0 0 35 0 35 70 0 70 0 0 -35z m180 0 l0 -35 -70 0 -70 0 0 35 0 35
70 0 70 0 0 -35z m155 0 l0 -30 -67 -3 -68 -3 0 36 0 36 68 -3 67 -3 0 -30z
m-490 -80 l0 -30 -67 -3 -68 -3 0 36 0 36 68 -3 67 -3 0 -30z m155 0 l0 -35
-70 0 -70 0 0 35 0 35 70 0 70 0 0 -35z m180 0 l0 -35 -70 0 -70 0 0 35 0 35
70 0 70 0 0 -35z m155 0 l0 -30 -67 -3 -68 -3 0 36 0 36 68 -3 67 -3 0 -30z
m-490 -80 l0 -30 -67 -3 -68 -3 0 36 0 36 68 -3 67 -3 0 -30z m155 0 l0 -35
-70 0 -70 0 0 35 0 35 70 0 70 0 0 -35z m180 0 l0 -35 -70 0 -70 0 0 35 0 35
70 0 70 0 0 -35z m155 0 l0 -30 -67 -3 -68 -3 0 36 0 36 68 -3 67 -3 0 -30z
m-1875 -136 c0 -72 -3 -89 -15 -89 -12 0 -15 16 -15 88 0 49 3 92 6 95 17 17
24 -11 24 -94z m60 1 c0 -73 -3 -90 -15 -90 -12 0 -15 17 -15 90 0 73 3 90 15
90 12 0 15 -17 15 -90z m1325 55 l0 -30 -67 -3 -68 -3 0 36 0 36 68 -3 67 -3
0 -30z m155 0 l0 -35 -70 0 -70 0 0 35 0 35 70 0 70 0 0 -35z m180 0 l0 -35
-70 0 -70 0 0 35 0 35 70 0 70 0 0 -35z m155 24 c4 -5 4 -21 1 -35 -6 -22 -11
-24 -71 -24 l-65 0 0 35 0 35 64 0 c36 0 68 -5 71 -11z m835 -29 c0 -5 -4 -10
-10 -10 -5 0 -10 5 -10 10 0 6 5 10 10 10 6 0 10 -4 10 -10z m-1322 -72 l-3
-33 -67 -3 -68 -3 0 36 0 35 71 0 70 0 -3 -32z m152 -3 l0 -35 -70 0 -70 0 0
35 0 35 70 0 70 0 0 -35z m180 0 l0 -36 -67 3 -68 3 -3 33 -3 32 70 0 71 0 0
-35z m155 0 l0 -30 -67 -3 c-38 -2 -68 -1 -68 2 0 3 4 16 9 30 7 17 7 26 -2
30 -7 3 20 4 58 3 l70 -2 0 -30z m-1877 -167 c-2 -62 -7 -93 -15 -96 -10 -3
-13 20 -13 92 0 80 3 96 15 96 13 0 15 -15 13 -92z m62 2 c0 -73 -3 -90 -15
-90 -12 0 -15 17 -15 90 0 73 3 90 15 90 12 0 15 -17 15 -90z m2790 70 c0 -11
-7 -20 -15 -20 -8 0 -15 9 -15 20 0 11 7 20 15 20 8 0 15 -9 15 -20z m-60 -5
c0 -8 -7 -15 -15 -15 -8 0 -15 7 -15 15 0 8 7 15 15 15 8 0 15 -7 15 -15z m0
-40 c0 -8 -7 -15 -15 -15 -8 0 -15 7 -15 15 0 8 7 15 15 15 8 0 15 -7 15 -15z
m60 -5 c0 -11 -7 -20 -15 -20 -8 0 -15 9 -15 20 0 11 7 20 15 20 8 0 15 -9 15
-20z m0 -156 c0 -69 -4 -114 -10 -114 -6 0 -10 47 -10 121 0 77 4 118 10 114
6 -4 10 -55 10 -121z m-50 0 c0 -105 -2 -115 -17 -112 -12 2 -18 13 -18 28 l0
25 -414 0 -413 0 1 -142 c2 -138 1 -143 -19 -143 -19 0 -20 6 -20 153 l0 152
432 0 433 0 -3 67 c-4 71 1 88 24 88 11 0 14 -22 14 -116z m-2810 -44 c0 -40
-4 -70 -10 -70 -6 0 -10 30 -10 70 0 40 4 70 10 70 6 0 10 -30 10 -70z m60 35
c0 -14 5 -25 12 -25 9 0 9 -3 0 -12 -7 -7 -12 -25 -12 -40 0 -18 -5 -28 -15
-28 -12 0 -15 14 -15 65 0 51 3 65 15 65 9 0 15 -9 15 -25z m833 -32 c5 -7
-424 -7 -698 0 -60 1 71 4 292 5 221 1 404 -1 406 -5z m-33 -183 l0 -149 156
-3 156 -3 13 -39 c24 -69 93 -127 168 -141 l37 -7 0 -309 -1 -309 -649 0 -650
0 0 80 0 80 38 1 37 2 -35 6 -35 6 -7 330 c-4 182 -5 335 -3 342 2 6 21 14 42
16 l38 4 -42 1 -43 2 0 68 c0 37 3 91 6 120 l7 52 383 0 384 0 0 -150z m1895
78 c4 -35 5 -85 3 -113 l-3 -50 -40 -4 -40 -5 40 -5 40 -6 3 -79 c2 -44 0 -86
-3 -95 -3 -8 -7 -126 -8 -261 l-2 -245 -35 -6 -35 -6 38 -2 37 -1 0 -80 0 -80
-650 0 -649 0 2 403 2 402 23 3 c22 3 22 1 22 -93 l0 -97 38 6 c70 13 124 55
157 123 l30 62 124 3 124 3 -2 132 c-1 73 0 137 4 143 4 6 141 10 390 10 l383
0 7 -62z m-2745 -79 c0 -72 -3 -89 -15 -89 -12 0 -15 16 -15 88 0 49 3 92 6
95 17 17 24 -11 24 -94z m2850 0 c0 -72 -3 -89 -15 -89 -12 0 -15 16 -15 88 0
49 3 92 6 95 17 17 24 -11 24 -94z m-2790 1 c0 -73 -3 -90 -15 -90 -12 0 -15
17 -15 90 0 73 3 90 15 90 12 0 15 -17 15 -90z m2730 0 c0 -73 -3 -90 -15 -90
-12 0 -15 17 -15 90 0 73 3 90 15 90 12 0 15 -17 15 -90z m17 -42 c-2 -24 -4
-5 -4 42 0 47 2 66 4 43 2 -24 2 -62 0 -85z m-1657 -44 l0 -34 -135 0 -135 0
0 38 0 37 135 -3 135 -3 0 -35z m-1152 -106 c-2 -62 -7 -93 -15 -96 -10 -3
-13 19 -13 86 0 49 3 92 7 95 18 19 23 -1 21 -85z m62 2 c0 -73 -3 -90 -15
-90 -12 0 -15 17 -15 90 0 73 3 90 15 90 12 0 15 -17 15 -90z m2730 0 c0 -73
-3 -90 -15 -90 -12 0 -15 17 -15 90 0 73 3 90 15 90 12 0 15 -17 15 -90z m60
-6 c0 -72 -3 -95 -12 -92 -9 3 -14 34 -16 96 -2 77 0 92 13 92 12 0 15 -16 15
-96z m-43 -36 c-2 -24 -4 -5 -4 42 0 47 2 66 4 43 2 -24 2 -62 0 -85z m-1390
-385 c-1 -93 -3 -17 -3 167 0 184 2 260 3 168 2 -93 2 -243 0 -335z m-1427 71
c0 -161 -3 -243 -10 -239 -6 4 -10 97 -10 246 0 153 4 239 10 239 6 0 10 -89
10 -246z m2860 7 c0 -149 -4 -242 -10 -246 -7 -4 -10 78 -10 239 0 157 4 246
10 246 6 0 10 -86 10 -239z m-2800 -11 c0 -207 -2 -240 -15 -240 -13 0 -15 33
-15 240 0 207 2 240 15 240 13 0 15 -33 15 -240z m2750 -1 c0 -224 -1 -240
-17 -237 -16 3 -18 23 -21 228 -1 123 0 230 2 237 3 7 12 13 21 13 13 0 15
-31 15 -241z m-2810 -374 l0 -125 1420 0 1420 0 0 125 c0 77 4 125 10 125 6 0
10 -52 10 -135 l0 -135 -1440 0 -1440 0 0 135 c0 83 4 135 10 135 6 0 10 -48
10 -125z m62 33 l3 -93 675 0 675 0 6 95 5 95 2 -98 2 -97 672 2 672 3 -3 93
c-3 88 -2 92 18 92 20 0 21 -5 21 -110 l0 -110 -1390 0 -1390 0 0 110 c0 90 3
110 15 110 11 0 15 -19 17 -92z"/>
<path d="M5241 3248 c1 -21 3 -26 6 -13 3 11 12 26 21 33 14 11 13 12 -6 12
-18 0 -22 -5 -21 -32z"/>
<path d="M5333 3273 c9 -2 25 -2 35 0 9 3 1 5 -18 5 -19 0 -27 -2 -17 -5z"/>
<path d="M5425 3271 c11 -4 23 -19 26 -32 6 -21 7 -20 8 9 1 29 -2 32 -26 31
-24 0 -25 -2 -8 -8z"/>
<path d="M5671 3248 c2 -30 2 -30 6 -6 2 15 12 29 21 31 12 3 10 5 -5 6 -20 1
-23 -4 -22 -31z"/>
<path d="M5758 3273 c12 -2 30 -2 40 0 9 3 -1 5 -23 4 -22 0 -30 -2 -17 -4z"/>
<path d="M5852 3273 c9 -2 19 -16 21 -31 4 -24 4 -24 6 6 1 27 -2 32 -21 31
-16 -1 -18 -3 -6 -6z"/>
<path d="M5239 3158 c-5 -38 -5 -38 31 -37 31 1 32 2 10 8 -17 5 -27 16 -31
36 -5 30 -5 30 -10 -7z"/>
<path d="M5452 3170 c-1 -15 -7 -31 -14 -38 -9 -9 -3 -12 28 -11 21 1 29 4 17
6 -16 3 -23 13 -26 36 -3 26 -4 27 -5 7z"/>
<path d="M5671 3167 c-1 -18 -8 -31 -23 -37 -20 -7 -17 -9 17 -9 22 0 35 3 28
7 -6 4 -13 21 -16 37 l-4 30 -2 -28z"/>
<path d="M5870 3166 c0 -18 -7 -29 -22 -36 -21 -8 -20 -9 9 -9 31 -1 32 0 26
32 -8 42 -13 47 -13 13z"/>
<path d="M5048 3123 c12 -2 30 -2 40 0 9 3 -1 5 -23 4 -22 0 -30 -2 -17 -4z"/>
<path d="M5148 3123 c12 -2 30 -2 40 0 9 3 -1 5 -23 4 -22 0 -30 -2 -17 -4z"/>
<path d="M5348 3123 c12 -2 30 -2 40 0 9 3 -1 5 -23 4 -22 0 -30 -2 -17 -4z"/>
<path d="M5548 3123 c12 -2 30 -2 40 0 9 3 -1 5 -23 4 -22 0 -30 -2 -17 -4z"/>
<path d="M5743 3123 c9 -2 25 -2 35 0 9 3 1 5 -18 5 -19 0 -27 -2 -17 -5z"/>
<path d="M5943 3123 c9 -2 25 -2 35 0 9 3 1 5 -18 5 -19 0 -27 -2 -17 -5z"/>
<path d="M5241 3063 c-1 -28 2 -33 22 -32 15 1 17 3 5 6 -9 2 -19 16 -21 31
-4 24 -4 24 -6 -5z"/>
<path d="M5450 3070 c0 -12 -10 -24 -22 -30 -22 -8 -22 -9 5 -9 24 -1 27 3 27
29 0 17 -2 30 -5 30 -3 0 -5 -9 -5 -20z"/>
<path d="M5671 3063 c-1 -28 2 -33 22 -32 15 1 17 3 5 6 -9 2 -19 16 -21 31
-4 24 -4 24 -6 -5z"/>
<path d="M5870 3066 c0 -15 -7 -26 -17 -29 -14 -4 -12 -5 5 -6 18 -1 22 4 22
29 0 17 -2 30 -5 30 -3 0 -5 -11 -5 -24z"/>
<path d="M5333 3033 c9 -2 25 -2 35 0 9 3 1 5 -18 5 -19 0 -27 -2 -17 -5z"/>
<path d="M5758 3033 c12 -2 30 -2 40 0 9 3 -1 5 -23 4 -22 0 -30 -2 -17 -4z"/>
<path d="M5192 2695 c0 -16 2 -22 5 -12 2 9 2 23 0 30 -3 6 -5 -1 -5 -18z"/>
<path d="M5213 2695 c-3 -9 -2 -19 2 -23 4 -4 10 -1 12 6 4 10 8 9 18 -4 11
-16 13 -16 20 7 l9 24 7 -25 7 -25 1 28 c1 18 -4 27 -14 27 -8 0 -15 -5 -15
-12 0 -9 -3 -9 -12 0 -16 16 -27 15 -35 -3z"/>
<path d="M5301 2683 c2 -24 2 -25 6 -5 2 12 8 22 13 22 5 0 11 -10 13 -22 4
-20 4 -19 6 5 1 21 -4 27 -19 27 -15 0 -20 -6 -19 -27z"/>
<path d="M5353 2678 c2 -20 9 -33 18 -33 9 0 15 12 17 33 3 27 0 32 -18 32
-18 0 -21 -5 -17 -32z m27 7 c0 -8 -4 -15 -10 -15 -5 0 -10 7 -10 15 0 8 5 15
10 15 6 0 10 -7 10 -15z"/>
<path d="M5430 2690 c0 -11 2 -20 4 -20 2 0 6 9 9 20 3 11 1 20 -4 20 -5 0 -9
-9 -9 -20z"/>
<path d="M5457 2697 c-3 -8 -1 -20 4 -28 7 -11 12 -12 28 -2 14 9 21 9 23 1 7
-19 38 0 38 22 0 13 -7 20 -20 20 -11 0 -20 -5 -20 -12 0 -9 -3 -9 -12 0 -16
16 -35 15 -41 -1z m33 -12 c0 -8 -4 -15 -9 -15 -13 0 -22 16 -14 24 11 11 23
6 23 -9z m50 0 c0 -8 -4 -15 -10 -15 -5 0 -10 7 -10 15 0 8 5 15 10 15 6 0 10
-7 10 -15z"/>
<path d="M5561 2688 c1 -17 3 -18 6 -5 6 25 23 21 24 -5 1 -22 1 -22 9 2 5 17
8 19 9 8 1 -10 6 -18 12 -18 6 0 9 8 7 18 -2 11 -14 18 -36 20 -28 3 -32 0
-31 -20z"/>
<path d="M6081 2188 c1 -18 3 -25 6 -15 2 9 8 17 13 17 5 0 11 -8 13 -17 4
-14 5 -13 6 4 1 13 -7 27 -19 33 -18 10 -20 8 -19 -22z"/>
<path d="M6182 2190 c0 -19 2 -27 5 -17 2 9 2 25 0 35 -3 9 -5 1 -5 -18z"/>
<path d="M6202 2190 c0 -19 2 -27 5 -17 2 9 2 25 0 35 -3 9 -5 1 -5 -18z"/>
<path d="M6140 2198 c-12 -8 -11 -9 5 -4 19 6 19 5 3 -8 -23 -17 -23 -25 2
-23 12 1 20 8 20 19 0 22 -12 29 -30 16z"/>
<path d="M6143 3123 c9 -2 25 -2 35 0 9 3 1 5 -18 5 -19 0 -27 -2 -17 -5z"/>
<path d="M6643 3123 c9 -2 25 -2 35 0 9 3 1 5 -18 5 -19 0 -27 -2 -17 -5z"/>
<path d="M6843 3123 c9 -2 25 -2 35 0 9 3 1 5 -18 5 -19 0 -27 -2 -17 -5z"/>
<path d="M6943 3123 c9 -2 25 -2 35 0 9 3 1 5 -18 5 -19 0 -27 -2 -17 -5z"/>
<path d="M7038 3123 c12 -2 30 -2 40 0 9 3 -1 5 -23 4 -22 0 -30 -2 -17 -4z"/>
<path d="M7138 3123 c12 -2 30 -2 40 0 9 3 -1 5 -23 4 -22 0 -30 -2 -17 -4z"/>
<path d="M7238 3123 c12 -2 30 -2 40 0 9 3 -1 5 -23 4 -22 0 -30 -2 -17 -4z"/>
<path d="M7338 3123 c12 -2 30 -2 40 0 9 3 -1 5 -23 4 -22 0 -30 -2 -17 -4z"/>
<path d="M7438 3123 c12 -2 30 -2 40 0 9 3 -1 5 -23 4 -22 0 -30 -2 -17 -4z"/>
<path d="M6972 2772 c4 -32 32 -37 36 -6 2 15 -3 23 -18 27 -18 5 -21 2 -18
-21z m28 -1 c0 -6 -4 -13 -10 -16 -5 -3 -10 1 -10 9 0 9 5 16 10 16 6 0 10 -4
10 -9z"/>
<path d="M7070 2774 c0 -12 4 -25 9 -28 5 -4 7 3 4 13 -4 15 0 20 16 18 12 -1
21 -7 21 -14 0 -7 5 -13 10 -13 13 0 13 27 -1 35 -5 4 -21 8 -35 10 -19 2 -24
-2 -24 -21z"/>
<path d="M7030 2780 c10 -6 11 -10 3 -10 -7 0 -13 -7 -13 -16 0 -24 35 -12 38
14 3 17 -1 22 -20 22 -18 0 -20 -2 -8 -10z"/>
<path d="M7151 2767 c1 -17 2 -18 6 -4 4 16 6 15 23 -5 14 -18 21 -20 32 -10
11 8 17 9 26 0 8 -8 15 -8 25 0 8 7 17 9 20 5 4 -3 7 1 7 10 0 22 17 22 23 0
4 -17 5 -17 6 0 0 10 6 15 11 12 6 -3 10 -2 10 3 0 6 -41 10 -95 10 -91 1 -95
0 -94 -21z m57 2 c-2 -6 -8 -10 -13 -10 -5 0 -11 4 -13 10 -2 6 4 11 13 11 9
0 15 -5 13 -11z m52 -4 c0 -8 -4 -15 -10 -15 -5 0 -10 7 -10 15 0 8 5 15 10
15 6 0 10 -7 10 -15z"/>
<path d="M6343 3123 c9 -2 25 -2 35 0 9 3 1 5 -18 5 -19 0 -27 -2 -17 -5z"/>
<path d="M6443 3123 c9 -2 25 -2 35 0 9 3 1 5 -18 5 -19 0 -27 -2 -17 -5z"/>
<path d="M7560 2515 c0 -20 5 -25 25 -25 20 0 25 5 25 25 0 20 -5 25 -25 25
-20 0 -25 -5 -25 -25z"/>
<path d="M5310 1691 c0 -24 4 -31 20 -31 11 0 20 5 20 10 0 6 9 5 21 -2 18
-11 23 -11 26 0 4 9 8 10 18 2 18 -15 65 -2 66 19 0 11 3 10 9 -6 9 -21 26
-23 107 -14 6 0 14 9 16 19 4 16 5 16 6 0 0 -10 6 -18 11 -18 6 0 10 8 11 18
1 11 4 9 9 -8 l8 -25 1 27 1 27 -95 -2 c-73 -2 -98 -6 -105 -17 -8 -12 -10
-10 -10 8 0 18 -3 21 -17 14 -20 -10 -79 -8 -105 3 -15 6 -18 2 -18 -24z m30
-7 c0 -8 -4 -12 -10 -9 -5 3 -10 10 -10 16 0 5 5 9 10 9 6 0 10 -7 10 -16z
m100 0 c0 -8 -4 -12 -10 -9 -5 3 -10 10 -10 16 0 5 5 9 10 9 6 0 10 -7 10 -16z
m88 5 c-2 -6 -8 -10 -13 -10 -5 0 -11 4 -13 10 -2 6 4 11 13 11 9 0 15 -5 13
-11z m50 0 c-2 -6 -8 -10 -13 -10 -5 0 -11 4 -13 10 -2 6 4 11 13 11 9 0 15
-5 13 -11z"/>
<path d="M5241 1258 c1 -21 3 -26 6 -13 3 11 12 26 21 33 14 11 13 12 -6 12
-18 0 -22 -5 -21 -32z"/>
<path d="M5333 1283 c9 -2 25 -2 35 0 9 3 1 5 -18 5 -19 0 -27 -2 -17 -5z"/>
<path d="M5432 1278 c9 -7 18 -22 21 -33 3 -13 5 -8 6 13 1 27 -3 32 -21 32
-19 0 -20 -1 -6 -12z"/>
<path d="M5671 1258 c2 -30 2 -30 6 -6 2 15 12 29 21 31 12 3 10 5 -5 6 -20 1
-23 -4 -22 -31z"/>
<path d="M5758 1283 c12 -2 30 -2 40 0 9 3 -1 5 -23 4 -22 0 -30 -2 -17 -4z"/>
<path d="M5852 1278 c9 -7 18 -22 21 -33 3 -13 5 -8 6 13 1 27 -3 32 -21 32
-19 0 -20 -1 -6 -12z"/>
<path d="M5237 1193 c-2 -5 0 -21 4 -38 l7 -30 1 28 c1 22 6 27 28 27 31 0 28
5 -9 14 -15 3 -28 3 -31 -1z"/>
<path d="M5435 1190 c-3 -5 -2 -10 4 -10 5 0 12 -12 14 -27 l4 -28 2 28 c1 21
6 27 23 27 27 0 21 5 -14 14 -15 3 -30 2 -33 -4z"/>
<path d="M5645 1190 c-19 -8 -19 -9 2 -9 16 -1 23 -8 26 -28 l4 -28 2 28 c0
15 7 27 14 27 8 0 7 4 -3 10 -17 11 -19 11 -45 0z"/>
<path d="M5845 1190 c-19 -8 -19 -9 2 -9 16 -1 23 -8 26 -28 l4 -28 2 28 c0
15 6 27 12 27 5 0 7 5 4 10 -7 12 -23 12 -50 0z"/>
<path d="M5048 1183 c12 -2 30 -2 40 0 9 3 -1 5 -23 4 -22 0 -30 -2 -17 -4z"/>
<path d="M5148 1183 c12 -2 30 -2 40 0 9 3 -1 5 -23 4 -22 0 -30 -2 -17 -4z"/>
<path d="M5348 1183 c12 -2 30 -2 40 0 9 3 -1 5 -23 4 -22 0 -30 -2 -17 -4z"/>
<path d="M5548 1183 c12 -2 30 -2 40 0 9 3 -1 5 -23 4 -22 0 -30 -2 -17 -4z"/>
<path d="M5748 1183 c12 -2 30 -2 40 0 9 3 -1 5 -23 4 -22 0 -30 -2 -17 -4z"/>
<path d="M5943 1183 c9 -2 25 -2 35 0 9 3 1 5 -18 5 -19 0 -27 -2 -17 -5z"/>
<path d="M6043 1183 c9 -2 25 -2 35 0 9 3 1 5 -18 5 -19 0 -27 -2 -17 -5z"/>
<path d="M6143 1183 c9 -2 25 -2 35 0 9 3 1 5 -18 5 -19 0 -27 -2 -17 -5z"/>
<path d="M5241 1073 c-1 -30 2 -33 27 -32 22 1 23 2 5 6 -14 3 -23 13 -26 31
-4 24 -4 24 -6 -5z"/>
<path d="M5450 1080 c0 -12 -10 -24 -22 -30 -22 -8 -22 -9 5 -9 24 -1 27 3 27
29 0 17 -2 30 -5 30 -3 0 -5 -9 -5 -20z"/>
<path d="M5671 1073 c-1 -28 2 -33 22 -32 15 1 17 3 5 6 -9 2 -19 16 -21 31
-4 24 -4 24 -6 -5z"/>
<path d="M5870 1076 c0 -15 -7 -26 -17 -29 -14 -4 -12 -5 5 -6 18 -1 22 4 22
29 0 17 -2 30 -5 30 -3 0 -5 -11 -5 -24z"/>
<path d="M5333 1043 c9 -2 25 -2 35 0 9 3 1 5 -18 5 -19 0 -27 -2 -17 -5z"/>
<path d="M5758 1043 c12 -2 30 -2 40 0 9 3 -1 5 -23 4 -22 0 -30 -2 -17 -4z"/>
<path d="M6930 1712 c0 -29 2 -30 45 -30 26 0 45 4 45 11 0 8 4 7 12 -1 14
-14 38 -16 38 -2 0 5 -7 7 -16 3 -12 -4 -15 -2 -12 8 3 8 11 13 17 12 6 -2 11
2 11 7 0 13 -27 13 -35 0 -5 -8 -11 -7 -21 1 -11 9 -18 9 -26 1 -8 -8 -17 -6
-34 5 -23 15 -24 15 -24 -15z m26 -19 c-10 -10 -19 5 -10 18 6 11 8 11 12 0 2
-7 1 -15 -2 -18z"/>
<path d="M7090 1718 c0 -5 4 -7 9 -4 5 3 11 -3 14 -13 7 -27 90 -25 95 2 4 21
-27 35 -38 17 -5 -8 -10 -9 -14 -2 -8 13 -66 13 -66 0z m60 -19 c0 -5 -7 -9
-15 -9 -15 0 -20 12 -9 23 8 8 24 -1 24 -14z m50 0 c0 -5 -7 -9 -15 -9 -15 0
-20 12 -9 23 8 8 24 -1 24 -14z"/>
<path d="M7221 1702 l1 -27 8 25 8 25 2 -25 1 -25 11 25 11 25 7 -25 8 -25 1
26 c1 22 -3 26 -29 27 -26 1 -30 -3 -29 -26z"/>
<path d="M6641 1258 c2 -30 2 -30 6 -6 2 15 12 29 21 31 12 3 10 5 -5 6 -20 1
-23 -4 -22 -31z"/>
<path d="M6728 1283 c12 -2 30 -2 40 0 9 3 -1 5 -23 4 -22 0 -30 -2 -17 -4z"/>
<path d="M6822 1283 c9 -2 19 -16 21 -31 4 -24 4 -24 6 6 1 27 -2 32 -21 31
-16 -1 -18 -3 -6 -6z"/>
<path d="M7061 1258 c1 -21 3 -26 6 -13 3 11 12 26 21 33 14 11 13 12 -6 12
-18 0 -22 -5 -21 -32z"/>
<path d="M7153 1283 c9 -2 25 -2 35 0 9 3 1 5 -18 5 -19 0 -27 -2 -17 -5z"/>
<path d="M7248 1284 c6 -3 12 -17 12 -30 0 -13 5 -24 11 -24 6 0 9 12 7 27 -2
19 -9 29 -23 30 -11 2 -14 0 -7 -3z"/>
<path d="M6637 1168 c8 -43 13 -48 13 -15 0 21 5 27 22 27 27 0 21 5 -14 14
-27 6 -27 5 -21 -26z"/>
<path d="M6830 1190 c-9 -6 -10 -10 -3 -10 6 0 14 -12 16 -27 l4 -28 2 28 c1
21 6 27 24 28 21 0 21 1 2 9 -26 11 -28 11 -45 0z"/>
<path d="M7040 1190 c-23 -7 -23 -8 -3 -9 16 -1 23 -9 26 -28 l4 -28 2 28 c0
15 6 27 12 27 5 0 7 5 4 10 -7 11 -10 11 -45 0z"/>
<path d="M7240 1190 c-24 -8 -24 -8 -2 -9 17 -1 22 -7 22 -26 0 -14 5 -25 10
-25 6 0 10 11 10 25 0 14 0 28 1 32 1 11 -13 12 -41 3z"/>
<path d="M6343 1183 c9 -2 25 -2 35 0 9 3 1 5 -18 5 -19 0 -27 -2 -17 -5z"/>
<path d="M6443 1183 c9 -2 25 -2 35 0 9 3 1 5 -18 5 -19 0 -27 -2 -17 -5z"/>
<path d="M6543 1183 c9 -2 25 -2 35 0 9 3 1 5 -18 5 -19 0 -27 -2 -17 -5z"/>
<path d="M6743 1183 c9 -2 25 -2 35 0 9 3 1 5 -18 5 -19 0 -27 -2 -17 -5z"/>
<path d="M6938 1183 c12 -2 30 -2 40 0 9 3 -1 5 -23 4 -22 0 -30 -2 -17 -4z"/>
<path d="M7138 1183 c12 -2 30 -2 40 0 9 3 -1 5 -23 4 -22 0 -30 -2 -17 -4z"/>
<path d="M7338 1183 c12 -2 30 -2 40 0 9 3 -1 5 -23 4 -22 0 -30 -2 -17 -4z"/>
<path d="M7438 1183 c12 -2 30 -2 40 0 9 3 -1 5 -23 4 -22 0 -30 -2 -17 -4z"/>
<path d="M6641 1073 c-1 -28 2 -33 22 -32 15 1 17 3 5 6 -9 2 -19 16 -21 31
-4 24 -4 24 -6 -5z"/>
<path d="M6840 1076 c0 -15 -7 -26 -17 -29 -14 -4 -12 -5 5 -6 18 -1 22 4 22
29 0 17 -2 30 -5 30 -3 0 -5 -11 -5 -24z"/>
<path d="M7061 1073 c-1 -30 2 -33 27 -32 22 1 23 2 5 6 -14 3 -23 13 -26 31
-4 24 -4 24 -6 -5z"/>
<path d="M7260 1071 c0 -11 -8 -22 -17 -25 -11 -3 -7 -4 7 -3 18 1 26 9 28 25
2 12 -1 22 -7 22 -6 0 -11 -9 -11 -19z"/>
<path d="M6728 1043 c12 -2 30 -2 40 0 9 3 -1 5 -23 4 -22 0 -30 -2 -17 -4z"/>
<path d="M7148 1043 c12 -2 32 -2 45 0 12 2 2 4 -23 4 -25 0 -35 -2 -22 -4z"/>
<path d="M5740 1894 c0 -19 5 -24 25 -24 20 0 25 5 25 24 0 18 -5 24 -25 24
-20 0 -25 -6 -25 -24z"/>
<path d="M5810 1896 c0 -21 5 -26 23 -26 32 0 31 43 -1 48 -18 3 -22 -2 -22
-22z"/>
<path d="M5875 1911 c-3 -2 -5 -13 -5 -23 0 -13 7 -18 25 -18 20 0 25 5 25 24
0 19 -5 24 -20 23 -12 -1 -23 -3 -25 -6z"/>
<path d="M5945 1911 c-3 -2 -5 -13 -5 -23 0 -13 7 -18 25 -18 20 0 25 5 25 24
0 19 -5 24 -20 23 -12 -1 -23 -3 -25 -6z"/>
<path d="M4687 2523 c-13 -12 -7 -33 8 -33 8 0 15 -5 15 -11 0 -6 -7 -9 -15
-5 -8 3 -15 1 -15 -3 0 -5 21 -9 46 -9 44 0 45 0 42 31 -4 36 -25 47 -36 19
-5 -14 -12 -17 -27 -11 -11 4 -14 8 -7 8 6 1 12 6 12 11 0 11 -13 13 -23 3z
m73 -28 c0 -14 -4 -25 -10 -25 -11 0 -14 33 -3 43 11 11 13 8 13 -18z"/>
<path d="M4635 2510 c-3 -5 -2 -10 4 -10 5 0 12 -10 14 -22 3 -17 5 -14 6 10
1 31 -11 43 -24 22z"/>
<path d="M7783 2459 c-24 -24 -13 -46 21 -40 4 1 15 -4 22 -10 20 -16 37 1 32
32 -4 32 -34 37 -44 7 l-8 -23 -5 23 c-5 18 -8 21 -18 11z m67 -19 c0 -11 -4
-20 -10 -20 -5 0 -10 9 -10 20 0 11 5 20 10 20 6 0 10 -9 10 -20z"/>
<path d="M4693 2413 c-18 -7 -16 -33 2 -33 8 0 15 -5 15 -11 0 -6 -7 -9 -15
-5 -8 3 -15 1 -15 -4 0 -15 37 -12 43 3 4 10 6 10 6 0 1 -7 10 -13 22 -13 17
0 20 5 17 32 -3 36 -27 50 -35 20 -3 -12 -11 -18 -18 -15 -8 2 -11 11 -8 19 5
15 5 15 -14 7z m67 -33 c0 -11 -4 -20 -10 -20 -5 0 -10 9 -10 20 0 11 5 20 10
20 6 0 10 -9 10 -20z"/>
<path d="M4635 2400 c-3 -5 -2 -10 4 -10 5 0 12 -10 14 -22 3 -17 5 -14 6 10
1 31 -11 43 -24 22z"/>
<path d="M7767 2353 c-22 -22 7 -71 30 -51 10 8 17 8 25 0 15 -15 38 3 38 30
0 25 -30 36 -45 15 -7 -9 -16 -12 -24 -7 -11 6 -11 9 0 13 11 4 10 6 -2 6 -9
1 -19 -2 -22 -6z m83 -22 c0 -23 -16 -36 -25 -21 -9 14 1 40 15 40 5 0 10 -9
10 -19z m-56 -22 c-3 -5 -10 -7 -15 -3 -5 3 -7 10 -3 15 3 5 10 7 15 3 5 -3 7
-10 3 -15z"/>
<path d="M7995 2230 c-18 -3 -25 -8 -18 -13 6 -4 17 -6 25 -4 7 2 9 2 5 -1 -4
-2 -3 -10 4 -18 8 -10 8 -14 0 -14 -6 0 -11 -8 -11 -17 0 -15 -2 -14 -15 3
-14 19 -14 18 -15 -3 0 -16 6 -23 20 -23 11 0 20 7 20 15 0 8 7 15 16 15 11 0
14 -5 10 -16 -3 -9 -6 -18 -6 -20 0 -2 -8 -4 -19 -4 -22 0 -45 -25 -36 -40 10
-16 45 -12 45 5 0 8 5 15 11 15 6 0 8 -7 4 -17 -5 -15 -4 -16 6 -5 10 9 10 15
2 23 -9 9 -9 16 0 30 9 14 9 21 -1 31 -15 15 -16 45 0 50 23 8 -16 14 -47 8z
m15 -130 c0 -5 -7 -10 -15 -10 -8 0 -15 5 -15 10 0 6 7 10 15 10 8 0 15 -4 15
-10z"/>
<path d="M4635 1960 c-3 -5 -2 -10 4 -10 5 0 12 -10 14 -22 3 -17 5 -14 6 10
1 31 -11 43 -24 22z"/>
<path d="M4680 1955 c0 -8 7 -15 15 -15 21 0 19 -18 -2 -23 -10 -2 3 -4 30 -5
45 0 47 1 47 29 0 22 -5 29 -20 29 -11 0 -20 -6 -20 -14 0 -10 -7 -12 -22 -8
-21 5 -21 6 -2 13 18 7 17 8 -3 8 -14 1 -23 -5 -23 -14z m80 -15 c0 -11 -4
-20 -10 -20 -5 0 -10 9 -10 20 0 11 5 20 10 20 6 0 10 -9 10 -20z"/>
<path d="M7765 1960 c-3 -5 -2 -10 4 -10 5 0 12 -10 14 -22 3 -17 5 -14 6 10
1 31 -11 43 -24 22z"/>
<path d="M7810 1955 c0 -8 7 -15 15 -15 21 0 19 -18 -2 -23 -14 -4 -13 -5 4
-6 12 0 24 5 26 12 4 10 6 10 6 0 1 -7 10 -13 22 -13 16 0 20 5 17 27 -3 29
-38 47 -38 20 0 -11 -7 -13 -22 -9 -21 5 -21 6 -2 13 18 7 17 8 -3 8 -14 1
-23 -5 -23 -14z m80 -15 c0 -11 -4 -20 -10 -20 -5 0 -10 9 -10 20 0 11 5 20
10 20 6 0 10 -9 10 -20z"/>
<path d="M4647 1853 c-2 -5 -1 -19 4 -33 7 -23 7 -23 8 8 1 31 -3 40 -12 25z"/>
<path d="M4680 1845 c0 -8 7 -15 15 -15 8 0 15 -4 15 -10 0 -5 -8 -10 -17 -10
-12 0 -14 -3 -6 -11 7 -7 17 -8 25 -3 7 5 23 7 36 5 19 -2 22 2 22 28 0 32
-25 44 -36 17 -3 -8 -13 -12 -27 -8 -20 5 -20 6 -1 13 18 7 17 8 -3 8 -14 1
-23 -5 -23 -14z m80 -15 c0 -11 -4 -20 -10 -20 -5 0 -10 9 -10 20 0 11 5 20
10 20 6 0 10 -9 10 -20z"/>
<path d="M7765 1850 c-3 -5 -2 -10 4 -10 5 0 12 -10 14 -22 3 -17 5 -14 6 10
1 31 -11 43 -24 22z"/>
<path d="M7810 1845 c0 -8 7 -15 15 -15 8 0 15 -4 15 -10 0 -5 -8 -10 -17 -10
-14 0 -15 -2 -4 -12 10 -11 15 -9 25 5 12 15 14 15 19 2 10 -25 37 -6 37 26 0
22 -5 29 -20 29 -11 0 -20 -6 -20 -14 0 -10 -7 -12 -22 -8 -21 5 -21 6 -2 13
18 7 17 8 -3 8 -14 1 -23 -5 -23 -14z m80 -15 c0 -11 -4 -20 -10 -20 -5 0 -10
9 -10 20 0 11 5 20 10 20 6 0 10 -9 10 -20z"/>
<path d="M5332 773 c-2 -45 -5 -52 -24 -56 l-23 -4 23 -2 c12 0 22 -6 22 -12
0 -8 4 -8 13 -1 6 6 28 12 47 15 34 4 34 4 -7 5 l-42 2 -4 53 -3 52 -2 -52z"/>
<path d="M5380 776 c19 -11 21 -15 8 -16 -20 0 -35 -20 -16 -20 17 0 55 26 48
33 -3 3 -19 8 -35 12 l-30 6 25 -15z"/>
<path d="M6167 473 c-2 -5 0 -21 4 -38 7 -29 7 -29 8 8 1 35 -3 46 -12 30z"/>
<path d="M6217 473 c-4 -3 -3 -11 2 -17 5 -6 11 -20 14 -31 3 -12 5 -4 6 18 1
35 -7 46 -22 30z"/>
<path d="M6267 473 c-4 -3 -7 -17 -7 -30 0 -26 25 -42 42 -25 7 7 19 7 34 2
22 -9 24 -7 24 25 0 34 -12 46 -26 24 -3 -6 -1 -15 6 -19 9 -5 9 -9 1 -14 -6
-4 -11 -2 -11 4 0 6 -4 9 -9 6 -5 -3 -11 3 -14 14 -5 20 -27 27 -40 13z m30
-37 c-4 -9 -11 -16 -17 -16 -11 0 -14 33 -3 43 11 11 26 -10 20 -27z"/>
<path d="M4811 430 c0 -20 -6 -41 -13 -48 -9 -9 -9 -12 -1 -12 7 0 15 5 18 10
10 16 2862 14 2868 -2 3 -9 12 -6 28 10 16 15 20 25 13 30 -7 4 -14 16 -17 27
-3 13 -5 9 -6 -12 l-1 -33 -1426 0 c-1516 0 -1445 -2 -1457 46 -3 11 -5 4 -6
-16z"/>
</g>
</svg>
